<svg width="269" height="53" viewBox="0 0 269 53" fill="none" xmlns="http://www.w3.org/2000/svg">
<path d="M232.287 21.4355L228.582 19.9539C227.101 19.3964 226.05 18.9033 225.619 18.3479C225.064 17.7904 224.815 17.2973 224.815 16.371C224.815 14.3963 226.299 13.2834 229.324 13.2834C231.052 13.2834 232.783 13.5322 234.389 14.0875C234.944 14.2097 235.315 14.3341 235.437 14.3341C235.808 14.3341 236.117 14.0875 236.117 13.5322V12.2349C236.11 11.911 236.025 11.5934 235.87 11.3087C235.746 11.0621 235.499 10.9377 235.066 10.7512C233.141 10.0738 231.118 9.7188 229.078 9.70056C226.545 9.70056 224.384 10.3824 222.84 11.5553C221.234 12.7281 220.43 14.5185 220.43 16.4954C220.43 19.583 222.161 21.8064 225.619 23.1637L229.633 24.6475C230.992 25.2049 231.794 25.5737 232.287 26.1291C232.845 26.6865 232.967 27.1797 232.967 27.9816C232.967 29.0322 232.596 29.9585 231.794 30.5139C230.992 31.0713 229.817 31.4401 228.336 31.4401C226.05 31.4401 223.951 31.1936 221.79 30.5139C221.234 30.3895 220.863 30.2673 220.617 30.2673C220.246 30.2673 220.061 30.5139 220.061 31.0692V32.4286C220.069 32.7526 220.153 33.0701 220.308 33.3549C220.43 33.4792 220.679 33.7258 221.11 33.9123C223.271 34.8365 225.619 35.2696 228.336 35.2696C231.115 35.2696 233.276 34.5899 235.006 33.2927C236.734 31.9333 237.538 30.2051 237.538 27.9816C237.538 26.3756 237.168 25.2028 236.363 24.0921C235.499 23.0415 234.14 22.1152 232.287 21.4355ZM214.688 10.3824H211.909C211.105 10.3824 210.859 10.7533 210.859 11.3087V29.0322C208.575 30.5139 206.352 31.3179 204.066 31.3179C202.585 31.3179 201.534 30.947 200.854 30.1429C200.174 29.341 199.928 28.1682 199.928 26.4378V11.3087C199.928 10.629 199.681 10.3824 199.002 10.3824H196.223C195.543 10.3824 195.297 10.629 195.297 11.3087V27.8594C195.297 30.1429 195.854 31.9976 197.027 33.1705C198.2 34.3433 199.99 35.023 202.214 35.023C205.301 35.023 208.327 33.9724 211.292 31.8111L211.538 33.417C211.538 33.788 211.663 33.9724 211.909 34.0967C212.032 34.2189 212.28 34.2189 212.711 34.2189H214.688C215.368 34.2189 215.615 33.9724 215.615 33.2927V11.3087C215.615 10.629 215.368 10.3824 214.688 10.3824ZM182.389 9.7027C179.301 9.7027 176.154 10.7533 173.066 13.0369C172.015 10.7512 169.978 9.7027 167.075 9.7027C164.172 9.7027 161.207 10.7533 158.243 12.7903L157.997 11.3087C157.997 10.9377 157.872 10.7512 157.626 10.629C157.502 10.5046 157.255 10.5046 156.946 10.5046H154.785C154.105 10.5046 153.859 10.7533 153.859 11.4309V33.5393C153.859 34.219 154.105 34.4655 154.785 34.4655H157.564C158.243 34.4655 158.49 34.219 158.49 33.5393V15.5713C160.776 14.2097 162.999 13.4078 165.407 13.4078C166.766 13.4078 167.693 13.7787 168.186 14.5807C168.743 15.3847 169.112 16.4332 169.112 18.0392V33.3549C169.112 34.0345 169.359 34.2811 170.038 34.2811H172.817C173.497 34.2811 173.743 34.0345 173.743 33.3549V15.5691C176.154 14.0875 178.439 13.4078 180.661 13.4078C182.02 13.4078 182.946 13.7787 183.439 14.5807C183.997 15.3847 184.366 16.4332 184.366 18.0392V33.3549C184.366 34.0345 184.612 34.2811 185.292 34.2811H188.071C188.75 34.2811 188.997 34.0345 188.997 33.3549V16.6798C188.997 14.3963 188.442 12.6659 187.269 11.4931C186.283 10.3824 184.674 9.7027 182.389 9.7027ZM257.794 15.6935C258.967 14.3341 260.882 13.7166 263.536 13.7166C264.896 13.7166 266.193 13.8409 267.428 14.274C267.799 14.3963 267.983 14.3963 268.23 14.3963C268.601 14.3963 268.91 14.1497 268.91 13.47V12.1106C268.91 11.7396 268.785 11.3087 268.663 11.1843C268.539 11.0621 268.292 10.8134 267.983 10.6268C266.255 10.258 264.525 9.82707 262.919 9.82707C259.214 9.82707 256.373 10.8777 254.274 13.1612C252.297 15.3225 251.186 18.4723 251.186 22.4861C251.186 26.5 252.112 29.5254 254.149 31.6867C256.126 33.848 258.967 34.8986 262.672 34.8986C264.649 34.8986 266.564 34.6521 267.983 33.9724C268.354 33.848 268.663 33.7258 268.785 33.4149C268.91 33.2927 268.91 32.8617 268.91 32.4908V31.1314C268.91 30.4517 268.663 30.2051 268.23 30.2051C268.108 30.2051 267.859 30.2051 267.55 30.3295C266.069 30.6982 264.587 31.007 263.29 31.007C260.758 31.007 258.905 30.3295 257.67 29.0322C256.497 27.6729 255.942 25.5737 255.942 22.7928V22.1152C256.002 19.152 256.559 17.0507 257.794 15.6935ZM245.257 10.3824H242.479C241.799 10.3824 241.552 10.629 241.552 11.3087V33.4149C241.552 34.0967 241.799 34.3433 242.479 34.3433H245.257C245.937 34.3433 246.184 34.0967 246.184 33.417V11.3087C246.184 10.7512 245.875 10.3824 245.257 10.3824ZM246.059 1.30406C245.504 0.746578 244.702 0.5 243.776 0.5C242.85 0.5 242.17 0.748722 241.615 1.30406C241.057 1.86154 240.81 2.47691 240.81 3.28096C240.81 4.08288 241.057 4.88479 241.615 5.25573C242.17 5.81321 242.787 6.05979 243.776 6.05979C244.762 6.05979 245.38 5.81106 245.937 5.25573C246.492 4.69825 246.739 4.08288 246.739 3.28096C246.677 2.47691 246.555 1.67285 246.059 1.30406ZM87.6579 41.1982C78.3951 45.1498 68.3283 47.0024 59.2479 47.0024C45.7247 47.0024 32.6325 43.2973 22.0725 37.1822C21.1463 36.6268 20.4666 37.5531 21.2084 38.2971C31.0287 47.1268 43.9965 52.5 58.3838 52.5C68.6971 52.5 80.6186 49.2881 88.8307 43.1729C90.188 42.1866 89.0151 40.7029 87.6579 41.1982Z" fill="white"/>
<path d="M82.469 37.8643C81.7293 38.3574 81.8515 39.0371 82.6556 38.9749C85.31 38.604 91.2386 37.9243 92.2271 39.2837C93.2777 40.7031 91.0542 46.2007 90.0658 48.6708C89.757 49.4105 90.4367 49.7214 91.1164 49.164C95.5612 45.4589 96.6741 37.7399 95.8078 36.6271C94.8815 35.5164 87.2226 34.528 82.469 37.8643ZM25.8398 34.528H30.2246C30.7178 34.528 31.0887 34.157 31.0887 33.7882V21.8046C31.0887 19.1501 30.9643 15.5672 34.1141 15.5672C37.2017 15.5672 36.7707 19.2723 36.7707 21.8067V33.7239C36.7707 34.0948 37.1416 34.4636 37.5726 34.5258H41.9574C42.3905 34.5258 42.8215 34.1549 42.8215 33.7239V21.8046C42.8215 20.5073 42.7615 18.5926 43.1924 17.4819C43.4006 16.9438 43.7646 16.4801 44.2379 16.1501C44.7112 15.82 45.2721 15.6388 45.849 15.6294C47.1463 15.6294 48.0725 16.0625 48.4435 17.5441C48.6279 18.4082 48.5657 20.8161 48.5657 21.7424V33.6617C48.5657 34.0327 48.9366 34.4036 49.3676 34.4636H53.6924C54.1233 34.4636 54.5564 34.0948 54.5564 33.6617V19.4589C54.5564 17.0488 54.8652 14.27 53.4436 12.4175C52.2086 10.6893 50.2338 9.94739 48.3813 9.94739C45.7869 9.94739 43.379 11.3068 42.3283 14.1478C41.1555 11.3068 39.3651 9.94739 36.6463 9.94739C33.9919 9.94739 31.8906 11.3068 30.9043 14.1478H30.7799V11.1824C30.7178 10.8115 30.409 10.4405 29.978 10.4405H25.902C25.4689 10.4405 25.0357 10.8115 25.0357 11.2446V33.726C25.0705 33.9264 25.1665 34.1111 25.3105 34.2547C25.4544 34.3983 25.6394 34.4937 25.8398 34.528ZM71.3537 19.2745C68.8215 19.5832 65.4873 19.7676 63.0773 20.8182C60.3607 21.9911 58.3838 24.399 58.3838 27.9819C58.3838 32.491 61.2869 34.7745 64.9299 34.7745C68.0174 34.7745 69.7478 34.0348 72.1557 31.5647C72.9597 32.7376 73.2685 33.2929 74.6879 34.528C74.8549 34.6161 75.0446 34.6515 75.2322 34.6297C75.4197 34.6079 75.5962 34.5298 75.7385 34.4057C76.6026 33.6639 78.2086 32.2444 79.1971 31.5026C79.5658 31.256 79.5058 30.7607 79.1971 30.3297C78.393 29.1547 77.5289 28.2928 77.5289 26.2537V19.461C77.5289 16.5578 77.7133 13.9012 75.6142 11.9264C73.9482 10.2583 71.1672 9.76514 69.0059 9.76514C64.8077 9.76514 60.1763 11.3089 59.1857 16.4978C59.0635 17.051 59.4966 17.2975 59.8053 17.3597L64.0036 17.7928C64.3745 17.7928 64.6211 17.4219 64.7455 16.9888C65.1164 15.1984 66.598 14.3343 68.2662 14.3343C69.1303 14.3343 70.1788 14.7053 70.674 15.5072C71.2916 16.3713 71.2315 17.6685 71.2315 18.7191V19.2766H71.3537V19.2745ZM70.5497 28.415C69.87 29.65 68.7593 30.3897 67.5264 30.3897C65.8561 30.3897 64.8677 29.0947 64.8677 27.18C64.8677 23.4749 68.204 22.733 71.4159 22.733V23.6592C71.3516 25.4496 71.3516 26.8712 70.5497 28.415ZM136.382 10.0117C133.356 10.0117 131.626 11.4311 130.391 14.5209H130.269V11.0623C130.144 10.6914 129.898 10.4427 129.465 10.4427H125.391C125.184 10.4516 124.987 10.5296 124.829 10.6641C124.672 10.7986 124.565 10.9818 124.524 11.1846V33.726C124.524 34.097 124.895 34.4658 125.329 34.528H129.713C130.144 34.528 130.577 34.157 130.577 33.726V21.5601C130.577 20.0163 130.7 18.6569 131.257 17.2975C131.75 16.1869 132.737 15.5072 133.787 15.5072C136.815 15.5072 136.506 19.0879 136.506 21.5601V33.7882C136.568 34.157 136.877 34.4057 137.308 34.4658H141.693C142.126 34.4658 142.495 34.157 142.557 33.7882V19.6454C142.557 17.4841 142.557 14.3965 141.384 12.6061C140.273 10.6914 138.359 10.0117 136.382 10.0117ZM98.5266 28.415C96.0565 26.9934 93.0912 26.6246 90.3124 26.6846L97.7847 16.0625C98.4644 15.0762 98.8954 14.4587 98.8954 14.0256V11.3089C98.8954 10.8758 98.5266 10.5049 98.0313 10.5049H83.644C83.5375 10.5013 83.4313 10.5196 83.3321 10.5588C83.233 10.5979 83.1429 10.657 83.0675 10.7324C82.9921 10.8078 82.933 10.8979 82.8939 10.997C82.8547 11.0962 82.8364 11.2024 82.84 11.3089V14.5187C82.84 14.9518 83.2109 15.3228 83.7041 15.3228H91.2386L82.5934 27.7353C82.0359 28.5372 82.0359 29.4034 82.0359 29.8966V33.1707C82.0359 33.6639 82.5934 34.157 83.0865 33.9104C87.9666 31.256 93.8931 31.5026 98.2779 33.8483C98.8354 34.157 99.3285 33.6017 99.3285 33.1085V29.65C99.2063 29.1569 99.0819 28.6637 98.5266 28.415ZM21.7016 30.4519C20.8997 29.2791 20.0356 28.415 20.0356 26.378V19.5832C20.0356 16.68 20.22 14.0256 18.1209 12.0487C16.4527 10.3827 13.6739 9.88736 11.5126 9.88736C7.31218 9.88736 2.68081 11.4311 1.69236 16.62C1.57014 17.1753 2.00111 17.4219 2.30987 17.4841L6.51027 17.9151C6.88121 17.9151 7.12778 17.5463 7.25214 17.1131C7.62094 15.3228 9.10469 14.4587 10.7707 14.4587C11.6369 14.4587 12.6854 14.8275 13.1807 15.6315C13.7982 16.4956 13.7361 17.7928 13.7361 18.8435V19.3988C11.2038 19.7076 7.86966 19.892 5.45963 20.9426C2.80517 21.9932 0.890442 24.4011 0.890442 27.9819C0.890442 32.491 3.79363 34.7745 7.43654 34.7745C10.5241 34.7745 12.2545 34.0348 14.6623 31.5647C15.4643 32.7376 15.773 33.2929 17.1924 34.528C17.3594 34.6161 17.5492 34.6515 17.7367 34.6297C17.9242 34.6079 18.1008 34.5298 18.2431 34.4057C19.1072 33.6639 20.7131 32.2444 21.7016 31.5026C22.0103 31.316 22.0103 30.8229 21.7016 30.4519ZM13.0564 28.415C12.3767 29.65 11.266 30.3919 10.031 30.3919C8.36281 30.3919 7.37436 29.0947 7.37436 27.18C7.37436 23.4749 10.7107 22.733 13.9205 22.733V23.6592C13.8583 25.4496 13.9205 26.8712 13.0564 28.415ZM111.31 10.0117C104.948 10.0117 101.428 15.5072 101.49 22.4864C101.49 29.4635 104.948 35.0233 111.31 35.0233C117.485 35.0233 121.375 29.5257 121.375 22.6729C121.375 15.5694 117.856 10.0117 111.31 10.0117ZM111.246 30.3919C107.789 30.3919 107.852 24.5233 107.852 21.8067C107.852 19.0901 108.036 14.6452 111.31 14.6452C112.729 14.6452 113.718 15.2606 114.211 16.8044C114.769 18.5948 114.829 20.8804 114.829 22.7952C114.829 25.6362 114.644 30.3897 111.248 30.3897L111.246 30.3919Z" fill="white"/>
</svg>
