<svg width="166" height="40" viewBox="0 0 166 40" fill="none" xmlns="http://www.w3.org/2000/svg">
<g clip-path="url(#clip0_224_210)">
<path d="M27.0815 0.240234H27.9396C28.0932 4.74788 24.4012 9.37205 19.7029 9.2926C19.6235 4.96505 22.8651 1.07184 27.0815 0.240234ZM132.071 2.55497C134.036 1.24664 136.907 3.24356 136.488 5.54241C136.414 7.17914 134.841 8.05842 133.422 8.40272C132.659 8.06902 131.785 7.87303 131.229 7.20563C129.91 5.8867 130.371 3.33361 132.071 2.55497ZM41.0228 2.78274C43.1045 2.78803 45.1862 2.79333 47.2732 2.76684C51.1928 12.1264 54.9642 21.5496 58.8045 30.9409C62.7506 21.5972 66.4531 12.1529 70.3463 2.78803C72.4333 2.78274 74.515 2.78274 76.5967 2.79333C76.6231 14.4571 76.602 26.1261 76.6073 37.7898C74.9652 37.7845 73.3232 37.7792 71.6759 37.8269C71.5752 29.2989 71.7553 20.7709 71.5858 12.243C71.2187 12.903 70.8829 13.58 70.5794 14.2717C67.3801 22.1163 64.1225 29.9398 60.9073 37.7792C59.4983 37.7951 58.0841 37.8004 56.6751 37.7156C53.3063 29.1135 49.6091 20.6385 46.1979 12.0576C45.9807 20.6173 46.1555 29.1877 46.1078 37.7527C44.4075 37.7951 42.7125 37.7898 41.0122 37.7951C41.0122 26.1208 40.9964 14.4518 41.0228 2.78274Z" fill="white"/>
<path d="M12.2975 9.43574C15.0519 8.94842 17.4673 10.6116 20.0839 11.0619C22.5576 10.5375 24.8564 9.10203 27.4625 9.3245C30.3652 9.26094 33.056 10.76 34.8887 12.937C32.1025 14.7432 30.0844 17.9478 30.6883 21.359C30.8843 24.5054 33.2943 26.8625 35.911 28.2979C34.502 31.8468 32.5687 35.4964 29.3429 37.7052C26.1012 39.7604 22.8595 36.0419 19.4854 36.8947C17.8063 37.2179 16.2437 37.9488 14.5911 38.3779H13.2563C12.1598 37.9488 11.111 37.3503 10.2847 36.4975C6.59808 32.6572 4.24627 27.5722 3.65302 22.286V19.4468C3.94434 14.7114 7.43499 10.0767 12.2975 9.43574ZM110.322 13.7103C114.088 11.3797 119.146 11.2791 123.061 13.3236C125.486 14.6055 126.954 17.2063 127.107 19.913C125.497 19.9236 123.892 19.9236 122.287 19.913C121.858 18.9595 121.599 17.8578 120.783 17.1374C119.337 15.845 117.234 15.6913 115.412 16.0409C113.87 16.3852 112.154 17.5876 112.345 19.3621C112.191 20.7552 113.436 21.6874 114.596 22.1112C117.488 23.1546 120.629 23.3506 123.474 24.5424C125.026 25.1834 126.546 26.2162 127.171 27.8424C128.485 30.7027 127.34 34.294 124.861 36.132C123.156 37.4297 121.058 38.0865 118.966 38.3779H115.131C112.716 37.9382 110.216 37.0907 108.542 35.205C107.255 33.902 106.794 32.0905 106.434 30.3584C108.16 30.3425 109.887 30.3796 111.614 30.5226C112.202 32.0481 113.129 33.6795 114.856 34.0768C117.086 34.5535 119.882 34.6701 121.63 32.9486C122.912 31.6985 122.6 29.352 120.963 28.5628C117.112 26.7565 112.223 27.2227 108.981 24.124C105.936 21.2584 106.873 15.8397 110.322 13.7103ZM144.778 13.6468C148.538 11.3956 153.47 11.2791 157.358 13.2813C160.287 14.7962 162.199 17.879 162.554 21.1259C160.907 21.1524 159.265 21.163 157.617 21.1789C157.035 19.8812 156.584 18.4033 155.382 17.5241C153.698 16.1998 151.346 16.0621 149.338 16.5971C146.796 17.4128 145.344 20.0136 144.905 22.5084C144.518 25.5806 144.571 29.013 146.526 31.5873C148.507 34.3099 152.728 34.7442 155.382 32.795C156.574 31.9422 157.04 30.4908 157.612 29.209C159.259 29.2196 160.907 29.2143 162.554 29.2355C162.231 34.2675 157.654 38.0124 152.808 38.3779H150.032C147.198 38.0177 144.365 36.8524 142.468 34.6542C140.079 31.9104 139.205 28.1602 139.38 24.5901C139.311 20.3897 141.118 15.9244 144.778 13.6468ZM81.337 12.3172C83.0797 12.3172 84.8224 12.3172 86.565 12.3066C86.7239 18.0061 86.3902 23.7214 86.7345 29.4103C86.9517 33.8173 92.8683 35.1203 95.8876 32.6255C97.5031 31.3542 98.2288 29.2461 98.1758 27.2385C98.197 22.2648 98.144 17.2857 98.197 12.3119C99.9503 12.3172 101.704 12.3172 103.457 12.3119C103.467 20.8611 103.489 29.405 103.457 37.9488C101.746 37.9594 100.04 37.9117 98.34 37.7369C98.34 36.3545 98.3347 34.972 98.34 33.5895C97.0211 36.2591 94.415 38.1607 91.4064 38.3779H89.1393C86.8352 38.0495 84.5099 37.0325 83.1327 35.0938C81.676 33.1657 81.2999 30.6762 81.3264 28.3191C81.337 22.9851 81.3264 17.6512 81.337 12.3172ZM130.889 12.3119C132.558 12.3225 134.226 12.3278 135.89 12.2749C136.033 13.0217 136.154 13.7739 136.17 14.5366C136.139 22.2807 136.176 30.0194 136.149 37.7634C134.391 37.7952 132.632 37.7899 130.873 37.7899C130.879 29.299 130.847 20.8081 130.889 12.3119Z" fill="white"/>
</g>
<defs>
<clipPath id="clip0_224_210">
<rect width="164.667" height="39.52" fill="white" transform="translate(0.770569 0.240234)"/>
</clipPath>
</defs>
</svg>
