<svg width="21" height="21" viewBox="0 0 21 21" fill="none" xmlns="http://www.w3.org/2000/svg">
<g clip-path="url(#clip0_269_523)">
<path d="M10.1984 0.168945C12.8445 0.168945 15.3823 1.22014 17.2535 3.09126C19.1246 4.96239 20.1758 7.50019 20.1758 10.1464C20.1758 12.7925 19.1246 15.3303 17.2535 17.2015C15.3823 19.0726 12.8445 20.1238 10.1984 20.1238C7.55219 20.1238 5.0144 19.0726 3.14327 17.2015C1.27214 15.3303 0.220947 12.7925 0.220947 10.1464C0.220947 7.50019 1.27214 4.96239 3.14327 3.09126C5.0144 1.22014 7.55219 0.168945 10.1984 0.168945ZM2.09171 10.1464C2.09171 12.2964 2.94581 14.3583 4.4661 15.8786C5.98639 17.3989 8.04835 18.253 10.1984 18.253C12.3484 18.253 14.4103 17.3989 15.9306 15.8786C17.4509 14.3583 18.305 12.2964 18.305 10.1464C18.305 7.99635 17.4509 5.93439 15.9306 4.4141C14.4103 2.8938 12.3484 2.03971 10.1984 2.03971C8.04835 2.03971 5.98639 2.8938 4.4661 4.4141C2.94581 5.93439 2.09171 7.99635 2.09171 10.1464ZM8.17669 6.68794L13.4947 9.87947C13.5406 9.90723 13.5786 9.94638 13.605 9.99314C13.6314 10.0399 13.6453 10.0927 13.6453 10.1464C13.6453 10.2001 13.6314 10.2528 13.605 10.2996C13.5786 10.3464 13.5406 10.3855 13.4947 10.4133L8.17669 13.6048C8.1294 13.6333 8.0754 13.6487 8.0202 13.6495C7.965 13.6503 7.91058 13.6364 7.86251 13.6092C7.81443 13.5821 7.77443 13.5427 7.74658 13.495C7.71874 13.4473 7.70405 13.3931 7.70401 13.3379V6.95609C7.70382 6.90077 7.71835 6.84641 7.74611 6.79856C7.77387 6.75072 7.81385 6.71112 7.86196 6.68383C7.91007 6.65653 7.96458 6.64253 8.01989 6.64325C8.07519 6.64398 8.12931 6.6594 8.17669 6.68794Z" fill="white"/>
</g>
<defs>
<clipPath id="clip0_269_523">
<rect width="19.9548" height="19.9548" fill="white" transform="translate(0.220947 0.167969)"/>
</clipPath>
</defs>
</svg>
