<svg width="189" height="52" viewBox="0 0 189 52" fill="none" xmlns="http://www.w3.org/2000/svg">
<g clip-path="url(#clip0_224_216)">
<path fill-rule="evenodd" clip-rule="evenodd" d="M107.138 33.2074H90.2323V12.6748H107.138V18.2213H98.2053V20.5945H106.605V25.1277H98.2053V27.661H107.138V33.2074ZM125.964 33.2074H109.058V12.6748H125.964V18.2213H117.032V20.5945H125.431V25.1277H117.032V27.661H125.964V33.2074ZM187.322 33.2074C186.17 30.0678 184.559 26.7177 182.391 22.9627C184.926 22.2193 186.442 20.6212 186.442 18.168C186.442 14.4348 183.002 12.6748 177.563 12.6748H166.362V33.2074H174.363V24.7141C176.139 27.7076 177.449 30.5323 178.309 33.2074H187.322ZM174.363 21.8478V18.2213H177.136C178.309 18.2213 178.976 18.8613 178.976 20.0345C178.976 21.2078 178.309 21.8478 177.136 21.8478H174.363ZM164.443 33.2074H147.537V12.6748H164.443V18.2213H155.51V20.5945H163.91V25.1277H155.51V27.661H164.443V33.2074ZM127.885 18.2213H136.138C132.714 21.0233 129.895 24.197 127.724 27.661V33.2074H145.884V27.661H136.807C138.887 24.6349 141.793 21.6217 145.884 18.2213V12.6748H127.885V18.2213ZM67.8334 12.675H78.1264C84.4995 12.675 89.006 16.9149 89.006 22.9412C89.006 28.9677 84.4995 33.2075 78.1264 33.2075H67.8334V12.675ZM75.8332 27.6611H77.6998C79.6997 27.6611 80.7664 26.3278 80.7664 22.9412C80.7664 19.5547 79.6997 18.2215 77.6998 18.2215H75.8332V27.6611Z" fill="white"/>
<path fill-rule="evenodd" clip-rule="evenodd" d="M45.3329 7.93339C45.814 5.1449 46.5199 3.39142 47.3019 3.38806H47.3036C48.7618 3.39309 49.9438 9.47418 49.9438 16.9822C49.9438 24.4902 48.7601 30.5763 47.3003 30.5763C46.7018 30.5763 46.1497 29.5429 45.7049 27.8112C45.0023 34.1502 43.5441 38.5081 41.8562 38.5081C40.5501 38.5081 39.378 35.8904 38.591 31.762C38.0537 39.6134 36.7014 45.1837 35.1208 45.1837C34.1289 45.1837 33.2245 42.9764 32.555 39.3823C31.7499 46.8015 29.89 52 27.7209 52C25.5518 52 23.6887 46.8031 22.8868 39.3823C22.2222 42.9764 21.3179 45.1837 20.3209 45.1837C18.7405 45.1837 17.3914 39.6134 16.8508 31.762C16.0639 35.8904 14.8951 38.5081 13.5856 38.5081C11.8993 38.5081 10.4395 34.152 9.7369 27.8112C9.29549 29.548 8.74 30.5763 8.14152 30.5763C6.68171 30.5763 5.49798 24.4902 5.49798 16.9822C5.49798 9.47418 6.68171 3.38806 8.14152 3.38806C8.92516 3.38806 9.62613 5.14657 10.1122 7.93339C10.8909 3.12512 12.1556 0 13.5856 0C15.2835 0 16.7549 4.41973 17.451 10.8375C18.1321 6.16651 19.1653 3.18877 20.3227 3.18877C21.9444 3.18877 23.3233 9.04544 23.8342 17.215C24.7947 13.0263 26.185 10.3987 27.7242 10.3987C29.2634 10.3987 30.6538 13.0281 31.6126 17.215C32.1251 9.04544 33.5023 3.18877 35.1241 3.18877C36.2797 3.18877 37.3114 6.16651 37.9958 10.8375C38.6901 4.41973 40.1615 0 41.8594 0C43.2846 0 44.5542 3.1268 45.3329 7.93339ZM1.72052 15.6452C1.72052 12.2889 2.39174 9.56737 3.22001 9.56737C4.04829 9.56737 4.71951 12.2889 4.71951 15.6452C4.71951 19.0013 4.04829 21.7229 3.22001 21.7229C2.39174 21.7229 1.72052 19.0013 1.72052 15.6452ZM50.7212 15.6452C50.7212 12.2889 51.3923 9.56737 52.2206 9.56737C53.049 9.56737 53.7202 12.2889 53.7202 15.6452C53.7202 19.0013 53.049 21.7229 52.2206 21.7229C51.3923 21.7229 50.7212 19.0013 50.7212 15.6452Z" fill="white"/>
</g>
<defs>
<clipPath id="clip0_224_216">
<rect width="187.417" height="52" fill="white" transform="translate(0.812805)"/>
</clipPath>
</defs>
</svg>
