<svg width="32" height="32" viewBox="0 0 32 32" fill="none" xmlns="http://www.w3.org/2000/svg">
<g clip-path="url(#clip0_200_122)">
<path d="M22.7885 19.189C22.7885 20.4994 23.1613 21.022 24.1363 21.022C26.3094 21.022 27.6931 18.253 27.6931 13.6478C27.6931 6.60912 22.5638 3.23952 16.16 3.23952C9.57216 3.23952 3.5802 7.65744 3.5802 16.0066C3.5802 23.9813 8.8218 28.3243 16.8714 28.3243C19.6045 28.3243 21.4391 28.0248 24.2455 27.0888L24.8477 29.5957C22.0771 30.4958 19.1162 30.7564 16.834 30.7564C6.27588 30.7564 0.62088 24.9532 0.62088 16.005C0.62088 6.98196 7.17444 0.841797 16.1975 0.841797C25.5949 0.841797 30.5729 6.4578 30.5729 13.3468C30.5729 19.1874 28.7399 23.6428 22.9741 23.6428C20.3518 23.6428 18.6311 22.5944 18.4064 20.2716C17.7325 22.855 15.9354 23.6428 13.5002 23.6428C10.243 23.6428 7.50984 21.1327 7.50984 16.0799C7.50984 10.988 9.90756 7.84308 14.2132 7.84308C16.497 7.84308 17.9197 8.74164 18.5531 10.1644L19.6404 8.18004H22.7854V19.189H22.7885ZM18.1849 14.2469C18.1849 12.1892 16.6483 11.3266 15.3754 11.3266C13.9901 11.3266 12.4566 12.4482 12.4566 15.7445C12.4566 18.3653 13.6172 19.8254 15.3754 19.8254C16.6109 19.8254 18.1849 19.0392 18.1849 16.8677V14.2469Z" fill="white"/>
</g>
<defs>
<clipPath id="clip0_200_122">
<rect width="31.2" height="31.2" fill="white" transform="translate(0 0.200195)"/>
</clipPath>
</defs>
</svg>
