<svg width="282" height="549" viewBox="0 0 282 549" fill="none" xmlns="http://www.w3.org/2000/svg">
<path d="M55.8916 6.75C55.8916 10.1864 53.1058 12.9722 49.6694 12.9722C46.233 12.9722 43.4472 10.1864 43.4472 6.75C43.4472 3.31356 46.233 0.527779 49.6694 0.527779C53.1058 0.527779 55.8916 3.31356 55.8916 6.75ZM2 6.75H0.833344V5.58333H2V6.75ZM280 319.75V318.583H281.167V319.75H280ZM55.5149 167.25C55.5149 170.686 52.7291 173.472 49.2927 173.472C45.8563 173.472 43.0705 170.686 43.0705 167.25C43.0705 163.814 45.8563 161.028 49.2927 161.028C52.7291 161.028 55.5149 163.814 55.5149 167.25ZM238.553 383.25C238.553 386.686 235.767 389.472 232.331 389.472C228.894 389.472 226.108 386.686 226.108 383.25C226.108 379.814 228.894 377.028 232.331 377.028C235.767 377.028 238.553 379.814 238.553 383.25ZM2 319.75V320.917H0.833344V319.75H2ZM280 542.75H281.167V543.917H280V542.75ZM238.553 542.75C238.553 546.186 235.767 548.972 232.331 548.972C228.894 548.972 226.108 546.186 226.108 542.75C226.108 539.314 228.894 536.528 232.331 536.528C235.767 536.528 238.553 539.314 238.553 542.75ZM49.6694 7.91667H2V5.58333H49.6694V7.91667ZM281.167 319.75V383.25H278.833V319.75H281.167ZM3.16666 6.75V167.25H0.833344V6.75H3.16666ZM280 384.417H232.331V382.083H280V384.417ZM2 166.083H19.7046V168.417H2V166.083ZM19.7046 166.083H49.2927V168.417H19.7046V166.083ZM3.16666 167.25V319.75H0.833344V167.25H3.16666ZM2 318.583H141V320.917H2V318.583ZM141 318.583H280V320.917H141V318.583ZM281.167 383.25V542.75H278.833V383.25H281.167ZM280 543.917H232.331V541.583H280V543.917Z" fill="#00FFA2"/>
</svg>
