<svg width="215" height="841" viewBox="0 0 215 841" fill="none" xmlns="http://www.w3.org/2000/svg">
<path d="M0 8C0 12.4183 3.58172 16 8 16C12.4183 16 16 12.4183 16 8C16 3.58172 12.4183 0 8 0C3.58172 0 0 3.58172 0 8ZM107.5 8H109V6.5H107.5V8ZM99.5 833C99.5 837.418 103.082 841 107.5 841C111.918 841 115.5 837.418 115.5 833C115.5 828.582 111.918 825 107.5 825C103.082 825 99.5 828.582 99.5 833ZM199 214.25C199 218.668 202.582 222.25 207 222.25C211.418 222.25 215 218.668 215 214.25C215 209.832 211.418 206.25 207 206.25C202.582 206.25 199 209.832 199 214.25ZM0 420.5C0 424.918 3.58172 428.5 8 428.5C12.4183 428.5 16 424.918 16 420.5C16 416.082 12.4183 412.5 8 412.5C3.58172 412.5 0 416.082 0 420.5ZM199 626.75C199 631.168 202.582 634.75 207 634.75C211.418 634.75 215 631.168 215 626.75C215 622.332 211.418 618.75 207 618.75C202.582 618.75 199 622.332 199 626.75ZM8 9.5H107.5V6.5H8V9.5ZM106 420.5V626.75H109V420.5H106ZM106 626.75V833H109V626.75H106ZM106 8V214.25H109V8H106ZM106 214.25V420.5H109V214.25H106ZM107.5 215.75H207V212.75H107.5V215.75ZM107.5 419H8V422H107.5V419ZM107.5 628.25H207V625.25H107.5V628.25Z" fill="#00FFA2"/>
</svg>
