<svg width="287" height="648" viewBox="0 0 287 648" fill="none" xmlns="http://www.w3.org/2000/svg">
<path d="M55.8916 7C55.8916 10.4364 53.1058 13.2222 49.6694 13.2222C46.233 13.2222 43.4472 10.4364 43.4472 7C43.4472 3.56356 46.233 0.777779 49.6694 0.777779C53.1058 0.777779 55.8916 3.56356 55.8916 7ZM2 7H0.833344V5.83333H2V7ZM286.222 641C286.222 644.436 283.436 647.222 280 647.222C276.564 647.222 273.778 644.436 273.778 641C273.778 637.564 276.564 634.778 280 634.778C283.436 634.778 286.222 637.564 286.222 641ZM280 320V318.833H281.167V320H280ZM55.5149 167.5C55.5149 170.936 52.7291 173.722 49.2927 173.722C45.8563 173.722 43.0705 170.936 43.0705 167.5C43.0705 164.064 45.8563 161.278 49.2927 161.278C52.7291 161.278 55.5149 164.064 55.5149 167.5ZM238.553 383.5C238.553 386.936 235.767 389.722 232.331 389.722C228.894 389.722 226.108 386.936 226.108 383.5C226.108 380.064 228.894 377.278 232.331 377.278C235.767 377.278 238.553 380.064 238.553 383.5ZM2 320V321.167H0.833344V320H2ZM238.553 543C238.553 546.436 235.767 549.222 232.331 549.222C228.894 549.222 226.108 546.436 226.108 543C226.108 539.564 228.894 536.778 232.331 536.778C235.767 536.778 238.553 539.564 238.553 543ZM49.6694 8.16667H2V5.83333H49.6694V8.16667ZM281.167 320V383.5H278.833V320H281.167ZM3.16666 7V167.5H0.833344V7H3.16666ZM280 384.667H232.331V382.333H280V384.667ZM2 166.333H19.7046V168.667H2V166.333ZM19.7046 166.333H49.2927V168.667H19.7046V166.333ZM3.16666 167.5V320H0.833344V167.5H3.16666ZM2 318.833H141V321.167H2V318.833ZM141 318.833H280V321.167H141V318.833ZM281.167 383.5V543H278.833V383.5H281.167ZM281.167 543V641H278.833V543H281.167ZM280 544.167H232.331V541.833H280V544.167Z" fill="#00FFA2"/>
</svg>
