<svg width="215" height="635" viewBox="0 0 215 635" fill="none" xmlns="http://www.w3.org/2000/svg">
<circle cx="108" cy="9" r="8" fill="#00FFA2"/>
<circle cx="108" cy="215" r="8" fill="#00FFA2"/>
<circle cx="108" cy="421" r="8" fill="#00FFA2"/>
<circle cx="108" cy="627" r="8" fill="#00FFA2"/>
<path d="M0 8C0 12.4183 3.58172 16 8 16C12.4183 16 16 12.4183 16 8C16 3.58172 12.4183 0 8 0C3.58172 0 0 3.58172 0 8ZM107.5 8H109V6.5H107.5V8ZM107.5 626.75H106V628.25H107.5V626.75ZM199 214.25C199 218.668 202.582 222.25 207 222.25C211.418 222.25 215 218.668 215 214.25C215 209.832 211.418 206.25 207 206.25C202.582 206.25 199 209.832 199 214.25ZM0 420.5C0 424.918 3.58172 428.5 8 428.5C12.4183 428.5 16 424.918 16 420.5C16 416.082 12.4183 412.5 8 412.5C3.58172 412.5 0 416.082 0 420.5ZM199 626.75C199 631.168 202.582 634.75 207 634.75C211.418 634.75 215 631.168 215 626.75C215 622.332 211.418 618.75 207 618.75C202.582 618.75 199 622.332 199 626.75ZM8 9.5H107.5V6.5H8V9.5ZM106 420.5V626.75H109V420.5H106ZM106 8V214.25H109V8H106ZM106 214.25V420.5H109V214.25H106ZM107.5 215.75H207V212.75H107.5V215.75ZM107.5 419H8V422H107.5V419ZM107.5 628.25H207V625.25H107.5V628.25Z" fill="#00FFA2"/>
</svg>
