<svg width="33" height="32" viewBox="0 0 33 32" fill="none" xmlns="http://www.w3.org/2000/svg">
<path d="M17.8364 2.7998C19.2989 2.8037 20.0412 2.8115 20.6821 2.8297L20.9343 2.8388C21.2255 2.8492 21.5128 2.8622 21.8599 2.8778C23.2431 2.9428 24.1869 3.1612 25.015 3.4823C25.873 3.8125 26.5958 4.2597 27.3186 4.9812C27.9799 5.63086 28.4914 6.41702 28.8175 7.2848C29.1386 8.1129 29.357 9.0567 29.422 10.4412C29.4376 10.787 29.4506 11.0743 29.461 11.3668L29.4688 11.619C29.4883 12.2586 29.4961 13.0009 29.4987 14.4634L29.5 15.4332V17.1362C29.5032 18.0844 29.4932 19.0327 29.4701 19.9806L29.4623 20.2328C29.4519 20.5253 29.4389 20.8126 29.4233 21.1584C29.3583 22.5429 29.1373 23.4854 28.8175 24.3148C28.4914 25.1826 27.9799 25.9688 27.3186 26.6184C26.6689 27.2797 25.8828 27.7912 25.015 28.1173C24.1869 28.4384 23.2431 28.6568 21.8599 28.7218L20.9343 28.7608L20.6821 28.7686C20.0412 28.7868 19.2989 28.7959 17.8364 28.7985L16.8666 28.7998H15.1649C14.2162 28.8032 13.2676 28.7932 12.3192 28.7699L12.067 28.7621C11.7584 28.7504 11.4499 28.737 11.1414 28.7218C9.7582 28.6568 8.8144 28.4384 7.985 28.1173C7.11768 27.7911 6.33198 27.2796 5.6827 26.6184C5.02093 25.9689 4.50894 25.1827 4.1825 24.3148C3.8614 23.4867 3.643 22.5429 3.578 21.1584L3.539 20.2328L3.5325 19.9806C3.50854 19.0327 3.4977 18.0844 3.5 17.1362V14.4634C3.4964 13.5152 3.50594 12.567 3.5286 11.619L3.5377 11.3668C3.5481 11.0743 3.5611 10.787 3.5767 10.4412C3.6417 9.0567 3.8601 8.1142 4.1812 7.2848C4.5084 6.41666 5.02129 5.63047 5.684 4.9812C6.3329 4.32022 7.11814 3.8087 7.985 3.4823C8.8144 3.1612 9.7569 2.9428 11.1414 2.8778C11.4872 2.8622 11.7758 2.8492 12.067 2.8388L12.3192 2.831C13.2672 2.80791 14.2154 2.79794 15.1636 2.8011L17.8364 2.7998ZM16.5 9.29981C14.7761 9.29981 13.1228 9.98462 11.9038 11.2036C10.6848 12.4226 10 14.0759 10 15.7998C10 17.5237 10.6848 19.177 11.9038 20.396C13.1228 21.615 14.7761 22.2998 16.5 22.2998C18.2239 22.2998 19.8772 21.615 21.0962 20.396C22.3152 19.177 23 17.5237 23 15.7998C23 14.0759 22.3152 12.4226 21.0962 11.2036C19.8772 9.98462 18.2239 9.29981 16.5 9.29981ZM16.5 11.8998C17.0122 11.8997 17.5193 12.0005 17.9925 12.1964C18.4657 12.3923 18.8957 12.6795 19.2579 13.0416C19.6201 13.4037 19.9075 13.8336 20.1035 14.3067C20.2996 14.7799 20.4006 15.287 20.4006 15.7992C20.4007 16.3113 20.2999 16.8185 20.104 17.2917C19.9081 17.7649 19.6209 18.1949 19.2588 18.5571C18.8967 18.9193 18.4669 19.2066 17.9937 19.4027C17.5206 19.5988 17.0135 19.6997 16.5013 19.6998C15.467 19.6998 14.475 19.2889 13.7436 18.5575C13.0122 17.8261 12.6013 16.8341 12.6013 15.7998C12.6013 14.7655 13.0122 13.7735 13.7436 13.0421C14.475 12.3107 15.467 11.8998 16.5013 11.8998M23.3263 7.3498C22.8953 7.3498 22.482 7.52101 22.1773 7.82576C21.8725 8.1305 21.7013 8.54383 21.7013 8.97481C21.7013 9.40578 21.8725 9.81911 22.1773 10.1239C22.482 10.4286 22.8953 10.5998 23.3263 10.5998C23.7573 10.5998 24.1706 10.4286 24.4753 10.1239C24.7801 9.81911 24.9513 9.40578 24.9513 8.97481C24.9513 8.54383 24.7801 8.1305 24.4753 7.82576C24.1706 7.52101 23.7573 7.3498 23.3263 7.3498Z" fill="white"/>
</svg>
