<svg width="22" height="21" viewBox="0 0 22 21" fill="none" xmlns="http://www.w3.org/2000/svg">
<path d="M21.625 0.375V14.4375C21.625 15.4818 21.2102 16.4833 20.4717 17.2217C19.7333 17.9602 18.7318 18.375 17.6875 18.375C16.6432 18.375 15.6417 17.9602 14.9033 17.2217C14.1648 16.4833 13.75 15.4818 13.75 14.4375C13.75 13.3932 14.1648 12.3917 14.9033 11.6533C15.6417 10.9148 16.6432 10.5 17.6875 10.5C18.295 10.5 18.8687 10.635 19.375 10.8825V4.27875L8.125 6.675V16.6875C8.125 17.7318 7.71016 18.7333 6.97173 19.4717C6.23331 20.2102 5.23179 20.625 4.1875 20.625C3.14321 20.625 2.14169 20.2102 1.40327 19.4717C0.664842 18.7333 0.25 17.7318 0.25 16.6875C0.25 15.6432 0.664842 14.6417 1.40327 13.9033C2.14169 13.1648 3.14321 12.75 4.1875 12.75C4.795 12.75 5.36875 12.885 5.875 13.1325V3.75L21.625 0.375Z" fill="#00FFA2"/>
</svg>
