<svg width="32" height="32" viewBox="0 0 32 32" fill="none" xmlns="http://www.w3.org/2000/svg">
<path d="M19.8218 20.9428L22.0058 18.7588C22.2999 18.4683 22.6721 18.2695 23.0771 18.1864C23.4821 18.1033 23.9025 18.1396 24.2873 18.2908L26.949 19.3536C27.3378 19.5114 27.6713 19.7808 27.9072 20.1278C28.1432 20.4749 28.2712 20.884 28.275 21.3036V26.1786C28.2727 26.4641 28.2127 26.7461 28.0986 27.0078C27.9845 27.2694 27.8185 27.5053 27.6109 27.7011C27.4032 27.897 27.158 28.0488 26.8901 28.1474C26.6222 28.246 26.3371 28.2893 26.052 28.2748C7.40025 27.1146 3.63675 11.3196 2.925 5.27459C2.89196 4.97774 2.92215 4.67726 3.01358 4.39291C3.10501 4.10856 3.25561 3.8468 3.45547 3.62483C3.65533 3.40287 3.89992 3.22573 4.17316 3.10509C4.44639 2.98444 4.74207 2.92301 5.04075 2.92484H9.75C10.1702 2.92609 10.5805 3.05303 10.928 3.28933C11.2755 3.52563 11.5444 3.86049 11.7 4.25084L12.7628 6.91259C12.919 7.29584 12.9589 7.71662 12.8774 8.12239C12.7959 8.52815 12.5966 8.90091 12.3045 9.19409L10.1205 11.3781C10.1205 11.3781 11.3783 19.8898 19.8218 20.9428Z" fill="white"/>
</svg>
