<svg width="370" height="43" viewBox="0 0 370 43" fill="none" xmlns="http://www.w3.org/2000/svg">
<mask id="mask0_548_574" style="mask-type:luminance" maskUnits="userSpaceOnUse" x="0" y="0" width="370" height="43">
<path d="M0.74695 25.6626L0.153809 31.0009L0.74695 36.3392C0.74695 36.6358 1.04352 36.6357 1.04352 36.6357C1.34009 36.6357 1.34009 36.3392 1.34009 36.3392L2.2298 31.0009L1.34009 25.6626C1.34009 25.3661 1.04352 25.3661 1.04352 25.3661C1.04352 25.3661 0.74695 25.3661 0.74695 25.6626ZM4.3058 22.4003L3.41609 31.0009L4.3058 39.6015C4.3058 39.898 4.60237 39.898 4.60237 39.898C4.89894 39.898 4.89894 39.6015 4.89894 39.6015L6.08523 31.0009L4.89894 22.4003C4.89894 22.1038 4.60237 22.1038 4.60237 22.1038L4.3058 22.4003ZM15.5755 21.2141L14.9824 31.0009L15.5755 41.3809C15.5755 41.6775 15.8721 41.974 16.1686 41.974C16.4652 41.974 16.7618 41.6775 16.7618 41.3809L17.9481 31.0009L17.0583 21.2141C17.0583 20.9175 16.7618 20.6209 16.4652 20.6209C15.8721 20.6209 15.5755 20.9175 15.5755 21.2141ZM8.16122 20.6209L7.27151 31.0009L8.16122 40.7877C8.16122 41.0843 8.45779 41.3809 8.75436 41.3809C8.75436 41.3809 9.05094 41.0843 9.05094 40.7877L9.94065 31.0009L9.05094 20.6209C9.05094 20.3244 8.75436 20.0278 8.45779 20.0278C8.45779 20.3244 8.16122 20.3244 8.16122 20.6209ZM11.7201 20.3244L10.8304 31.0009L11.7201 41.0843C11.7201 41.3809 12.0166 41.6775 12.3132 41.6775C12.6098 41.6775 12.9064 41.3809 12.9064 41.0843L13.7961 31.0009L12.9064 20.3244C12.9064 20.0278 12.6098 19.7312 12.3132 19.7312C12.0166 19.7312 12.0166 20.0278 11.7201 20.3244ZM19.4309 14.9861L18.5412 31.0009L19.4309 41.3809C19.4309 41.6775 19.7275 41.974 20.0241 41.974C20.6172 41.974 20.9138 41.6775 20.9138 41.3809L21.8035 31.0009L20.9138 14.9861C20.9138 14.6895 20.6172 14.3929 20.3206 14.3929C19.7275 14.3929 19.4309 14.6895 19.4309 14.9861ZM23.2863 11.4272L22.6932 31.0009L23.2863 41.3809C23.2863 41.974 23.5829 42.2706 24.1761 42.2706C24.4726 42.2706 25.0658 41.974 25.0658 41.3809L25.9555 31.0009L25.0658 11.4272C25.0658 10.8341 24.7692 10.5375 24.1761 10.5375C23.5829 10.5375 23.2863 10.8341 23.2863 11.4272ZM206.271 10.2409V27.4421C205.974 26.8489 205.084 25.3661 204.491 24.4763L195.001 10.2409H189.959V37.2289H195.297V19.4346C195.594 20.0278 196.484 21.5106 197.077 22.4003L206.864 37.2289H211.609V10.2409H206.271ZM224.065 15.5792H227.031C232.665 15.5792 235.038 18.2484 235.038 23.8832C235.038 28.9249 232.369 32.1872 226.734 32.1872H224.065V15.5792ZM218.727 37.2289H226.734C233.555 37.2289 240.673 33.3735 240.673 23.8832C240.673 14.0964 235.038 10.5375 227.327 10.5375H218.727V10.2409V37.2289ZM271.813 10.2409V37.2289H288.124V31.8906H277.448V10.2409H271.813ZM353.073 15.5792H356.039C361.674 15.5792 364.046 18.2484 364.046 23.8832C364.046 28.9249 361.377 32.1872 355.742 32.1872H353.073V15.5792ZM347.735 37.2289H355.742C361.674 37.2289 367.902 34.2632 369.385 27.1455V20.3244C368.198 13.2066 363.157 10.5375 356.335 10.5375H347.735V10.2409V37.2289ZM108.402 17.9518C108.402 23.2901 111.961 24.7729 116.706 25.9592C121.748 27.1455 122.638 27.7386 122.638 29.518C122.638 31.594 121.155 32.4838 117.892 32.4838C115.223 32.4838 112.851 31.594 111.071 29.518L107.216 33.0769C109.292 36.0426 113.147 38.1186 117.596 38.1186C125.01 38.1186 128.272 34.5598 128.272 29.518C128.272 23.5866 123.527 22.1038 119.375 21.2141C115.223 20.3244 114.037 19.7312 114.037 17.9518C114.037 16.7655 114.927 15.5792 117.892 15.5792C120.265 15.5792 122.341 16.4689 124.12 18.2484L127.976 14.3929C125.307 11.7238 122.341 10.2409 118.189 10.2409H117.299C112.258 10.2409 108.402 13.2067 108.402 17.9518ZM138.059 23.8832C138.059 19.1381 139.839 15.2826 144.287 15.2826C148.736 15.2826 150.515 19.1381 150.515 23.8832C150.515 28.6283 148.736 32.4838 144.287 32.4838C139.839 32.4838 138.059 28.6283 138.059 23.8832ZM132.424 23.8832C132.424 32.1872 136.873 37.822 143.991 37.822C151.405 37.822 155.854 32.1872 155.854 23.8832C155.854 15.5792 151.405 9.94437 143.991 9.94437C136.873 9.94437 132.424 15.5792 132.424 23.8832ZM177.8 9.94437V25.3661C177.8 29.8146 175.724 32.4838 172.165 32.4838C168.606 32.4838 166.53 29.8146 166.53 25.3661V10.2409H161.192V25.3661C161.192 33.0769 165.64 37.5255 172.165 37.5255C178.986 37.5255 183.138 33.0769 183.138 25.0695V9.94437H177.8ZM245.121 23.8832C245.121 32.4838 249.867 37.822 256.984 37.822C262.026 37.822 264.992 35.4495 267.068 31.594L262.619 28.9249C261.136 31.2975 259.653 32.4838 257.281 32.4838C253.129 32.4838 250.756 28.9249 250.756 23.8832C250.756 18.8415 253.129 15.2826 256.984 15.2826C259.357 15.2826 260.84 16.4689 262.026 18.2484L267.068 15.8758C265.288 12.3169 262.322 9.94437 257.281 9.94437C250.163 9.94437 245.121 15.5792 245.121 23.8832ZM296.132 23.8832C296.132 19.1381 297.911 15.2826 302.36 15.2826C306.808 15.2826 308.588 19.1381 308.588 23.8832C308.588 28.6283 306.808 32.4838 302.36 32.4838C297.911 32.4838 296.132 28.6283 296.132 23.8832ZM290.497 23.8832C290.497 32.1872 294.945 37.822 302.063 37.822C309.477 37.822 313.629 32.1872 313.629 23.8832C313.629 15.5792 309.181 9.94437 302.063 9.94437C294.945 9.94437 290.497 15.5792 290.497 23.8832ZM335.576 9.94437V25.3661C335.576 29.8146 333.499 32.4838 329.941 32.4838C326.382 32.4838 324.306 29.8146 324.306 25.3661V10.2409H318.968V25.3661C318.968 33.0769 323.416 37.5255 329.941 37.5255C336.762 37.5255 340.914 33.0769 340.914 25.0695V9.94437H335.576ZM39.0046 10.5375L38.4115 31.0009L39.0046 40.7877C39.0046 41.3809 39.5977 41.974 40.1909 41.974C40.784 41.974 41.3772 41.3809 41.3772 40.7877L41.9703 31.0009L41.3772 10.2409C41.3772 9.6478 40.784 9.05466 40.1909 9.05466C39.3012 9.35123 39.0046 9.6478 39.0046 10.5375ZM27.1418 9.6478L26.5486 31.0009L27.1418 41.0843C27.1418 41.6775 27.4383 41.974 28.0315 41.974C28.6246 41.974 28.9212 41.6775 28.9212 41.0843L29.5143 31.0009L28.9212 9.6478C28.9212 9.05466 28.6246 8.75809 28.0315 8.75809C27.4383 8.75809 27.1418 9.35123 27.1418 9.6478ZM34.8526 9.6478L34.2595 31.0009L34.8526 41.0843C34.8526 41.6775 35.4457 42.2706 36.0389 42.2706C36.632 42.2706 37.2252 41.6775 37.2252 41.0843L37.8183 31.0009L37.2252 9.6478C37.2252 9.05466 36.632 8.46152 36.0389 8.46152C35.4457 8.46152 34.8526 9.05466 34.8526 9.6478ZM30.9972 9.05466L30.404 31.0009L30.9972 41.0843C30.9972 41.6775 31.2938 41.974 31.8869 41.974C32.48 41.974 32.7766 41.6775 32.7766 41.0843L33.3697 31.0009L32.7766 9.05466C32.7766 8.46152 32.1835 8.16494 31.8869 8.16494C31.5903 8.16494 30.9972 8.46152 30.9972 9.05466ZM42.86 6.38552L42.2669 31.0009L42.86 40.7877C42.86 41.3809 43.4532 41.974 44.0463 41.974C44.6394 41.974 45.2326 41.3809 45.2326 40.7877L45.8257 31.0009L45.2326 6.38552C45.2326 5.79238 44.6394 5.19924 44.0463 5.19924C43.4532 5.19924 42.86 5.79238 42.86 6.38552ZM47.012 4.30952L46.4189 31.0009L47.012 40.7877C47.012 41.3809 47.6052 41.974 48.1983 41.974C48.7914 41.974 49.3846 41.3809 49.3846 40.7877L49.9777 31.0009L49.3846 4.30952C49.3846 3.71638 48.7914 3.12324 48.1983 3.12324H47.9017C47.3086 3.12324 47.012 3.71638 47.012 4.30952ZM51.7571 1.64039C50.8674 1.93696 50.5709 2.23353 50.5709 3.12324V40.7877C50.5709 41.3809 51.164 41.974 51.7571 42.2706H84.6765C91.2011 42.2706 96.5394 36.9323 96.5394 30.4078C96.5394 23.8832 91.2011 18.5449 84.6765 18.5449C83.1937 18.5449 81.4142 18.8415 80.228 19.4346C79.3382 8.75809 70.4411 0.454102 59.468 0.454102H57.9851C55.9091 0.454102 53.8331 1.04724 51.7571 1.64039Z" fill="white"/>
</mask>
<g mask="url(#mask0_548_574)">
<path d="M0.153809 0.454102H369.385V42.2706H0.153809V0.454102Z" fill="white"/>
</g>
</svg>
