<svg width="174" height="52" viewBox="0 0 174 52" fill="none" xmlns="http://www.w3.org/2000/svg">
<g clip-path="url(#clip0_224_222)">
<path d="M26.4368 0C12.0778 0 0.436974 11.6405 0.436974 25.9995C0.436974 40.3601 12.0778 52 26.4368 52C40.7965 52 52.4367 40.3601 52.4367 25.9995C52.4367 11.6414 40.7971 0.00124094 26.4365 0.00124094L26.4368 0ZM38.3602 37.4988C37.8932 38.2647 36.8954 38.5047 36.1319 38.0381C30.0265 34.3065 22.3417 33.4636 13.2914 35.531C12.4193 35.731 11.55 35.1842 11.3513 34.3124C11.1517 33.4403 11.6959 32.571 12.5702 32.3723C22.4742 30.108 30.9697 31.0826 37.8227 35.2702C38.5865 35.739 38.8287 36.7357 38.3599 37.4994L38.3602 37.4988ZM41.5425 30.4203C40.9545 31.3744 39.707 31.6737 38.7542 31.0878C31.767 26.7928 21.1125 25.5487 12.8462 28.058C11.7741 28.3818 10.6419 27.7776 10.3165 26.7074C9.9936 25.6353 10.5981 24.5052 11.6683 24.1792C21.1107 21.3142 32.849 22.702 40.8747 27.6339C41.8278 28.2207 42.129 29.4688 41.5422 30.4206L41.5425 30.4203ZM41.8157 23.0485C33.4348 18.0713 19.6108 17.6137 11.6102 20.0419C10.3255 20.4315 8.96686 19.7062 8.57752 18.4215C8.18819 17.1362 8.91283 15.7785 10.1985 15.3879C19.3826 12.5999 34.65 13.1385 44.2976 18.8658C45.4532 19.5516 45.8323 21.0441 45.1474 22.1981C44.4643 23.3537 42.9679 23.7346 41.816 23.0485H41.8157ZM71.1739 24.0023C66.6848 22.9318 65.8857 22.1804 65.8857 20.6017C65.8857 19.1102 67.2899 18.1064 69.3782 18.1064C71.4024 18.1064 73.4096 18.8686 75.514 20.4377C75.5777 20.4852 75.6575 20.5042 75.736 20.4918C75.8146 20.48 75.8841 20.4368 75.9301 20.3719L78.122 17.2821C78.212 17.1548 78.1875 16.9794 78.0661 16.8822C75.5615 14.8725 72.7412 13.8955 69.4446 13.8955C64.5975 13.8955 61.2118 16.8043 61.2118 20.9662C61.2118 25.4292 64.1324 27.0095 69.1795 28.2293C73.4752 29.2188 74.2001 30.0478 74.2001 31.5297C74.2001 33.1717 72.7341 34.1926 70.3748 34.1926C67.7544 34.1926 65.6171 33.3099 63.2262 31.2394C63.1669 31.1881 63.0855 31.1649 63.0104 31.1692C62.9312 31.1757 62.8589 31.2124 62.8086 31.2729L60.3509 34.1979C60.2478 34.3192 60.2609 34.5006 60.3801 34.6055C63.1619 37.089 66.5833 38.4007 70.2755 38.4007C75.4985 38.4007 78.8737 35.5469 78.8737 31.1298C78.883 27.401 76.6507 25.3364 71.1833 24.0063L71.1739 24.0023ZM90.6902 19.5749C88.4262 19.5749 86.5693 20.4666 85.038 22.2937V20.2372C85.038 20.0748 84.9064 19.9425 84.7443 19.9425H80.7247C80.5623 19.9425 80.431 20.0748 80.431 20.2372V43.0885C80.431 43.2509 80.5623 43.3831 80.7247 43.3831H84.7443C84.9064 43.3831 85.038 43.2509 85.038 43.0885V35.8753C86.5696 37.5941 88.4269 38.4339 90.6902 38.4339C94.8968 38.4339 99.1552 35.1957 99.1552 29.0055C99.1614 22.8138 94.9018 19.5746 90.6949 19.5746L90.6902 19.5749ZM94.4811 29.0055C94.4811 32.1577 92.5394 34.3574 89.7591 34.3574C87.0105 34.3574 84.9372 32.0578 84.9372 29.0055C84.9372 25.9536 87.0105 23.6536 89.7591 23.6536C92.4944 23.6533 94.4814 25.9036 94.4814 29.0052L94.4811 29.0055ZM110.07 19.5749C104.652 19.5749 100.408 23.7464 100.408 29.0729C100.408 34.3413 104.623 38.469 110.003 38.469C115.44 38.469 119.697 34.3115 119.697 29.0055C119.697 23.7179 115.469 19.5755 110.07 19.5755L110.07 19.5749ZM110.07 34.3888C107.188 34.3888 105.016 32.0736 105.016 29.004C105.016 25.9213 107.113 23.6843 110.003 23.6843C112.904 23.6843 115.09 25.9995 115.09 29.0713C115.09 32.1534 112.979 34.3888 110.07 34.3888H110.07ZM131.266 19.9425H126.842V15.4202C126.842 15.2581 126.711 15.1259 126.549 15.1259H122.53C122.367 15.1259 122.235 15.2581 122.235 15.4202V19.9425H120.303C120.141 19.9425 120.01 20.0748 120.01 20.2372V23.6918C120.01 23.8539 120.141 23.9864 120.303 23.9864H122.235V32.9252C122.235 36.5376 124.033 38.369 127.579 38.369C129.021 38.369 130.217 38.0713 131.345 37.432C131.436 37.3808 131.493 37.2821 131.493 37.1771V33.8874C131.493 33.7858 131.44 33.6899 131.353 33.6368C131.266 33.5819 131.157 33.5791 131.067 33.6235C130.293 34.0131 129.544 34.1929 128.707 34.1929C127.418 34.1929 126.842 33.6073 126.842 32.295V23.988H131.266C131.428 23.988 131.559 23.8557 131.559 23.6934V20.2391C131.565 20.0767 131.435 19.9444 131.27 19.9444L131.266 19.9425ZM146.678 19.9602V19.4048C146.678 17.7708 147.304 17.0421 148.709 17.0421C149.547 17.0421 150.22 17.2085 150.974 17.46C151.067 17.4892 151.164 17.4746 151.239 17.419C151.317 17.3634 151.361 17.2743 151.361 17.1799V13.7927C151.361 13.6632 151.278 13.5487 151.153 13.5105C150.356 13.2736 149.337 13.0305 147.812 13.0305C144.099 13.0305 142.137 15.1212 142.137 19.0744V19.9251H140.205C140.043 19.9251 139.911 20.0574 139.911 20.2194V23.6918C139.911 23.8538 140.043 23.9864 140.205 23.9864H142.137V37.7741C142.137 37.9365 142.268 38.0688 142.43 38.0688H146.449C146.612 38.0688 146.744 37.9365 146.744 37.7741V23.9874H150.497L156.246 37.7717C155.593 39.22 154.952 39.5082 154.076 39.5082C153.367 39.5082 152.622 39.2967 151.859 38.8794C151.787 38.84 151.702 38.8335 151.625 38.8574C151.548 38.8844 151.484 38.9415 151.451 39.016L150.089 42.005C150.024 42.1462 150.079 42.312 150.215 42.3853C151.638 43.1556 152.922 43.4843 154.508 43.4843C157.476 43.4843 159.117 42.1018 160.563 38.3824L167.537 20.3626C167.572 20.2719 167.561 20.1695 167.506 20.0891C167.45 20.0093 167.361 19.9612 167.264 19.9612H163.079C162.954 19.9612 162.842 20.0409 162.801 20.1586L158.514 32.403L153.819 20.1505C153.776 20.0366 153.666 19.9611 153.544 19.9611H146.677L146.678 19.9602ZM137.742 19.9425H133.723C133.56 19.9425 133.428 20.0748 133.428 20.2372V37.7742C133.428 37.9365 133.56 38.0688 133.723 38.0688H137.742C137.904 38.0688 138.037 37.9365 138.037 37.7742V20.2384C138.037 20.1997 138.029 20.1613 138.015 20.1255C138 20.0897 137.978 20.0571 137.951 20.0297C137.923 20.0024 137.891 19.9807 137.855 19.9659C137.819 19.9512 137.781 19.9436 137.742 19.9438L137.742 19.9425ZM135.755 11.9575C134.163 11.9575 132.871 13.2466 132.871 14.839C132.871 16.4323 134.163 17.723 135.755 17.723C137.347 17.723 138.638 16.4323 138.638 14.839C138.638 13.2469 137.346 11.9575 135.757 11.9575H135.755ZM170.969 25.581C169.378 25.581 168.14 24.3034 168.14 22.752C168.14 21.2006 169.394 19.9084 170.984 19.9084C172.575 19.9084 173.813 21.1857 173.813 22.7358C173.813 24.2873 172.558 25.581 170.969 25.581H170.969ZM170.984 20.1897C169.535 20.1897 168.439 21.3415 168.439 22.752C168.439 24.1618 169.528 25.2982 170.97 25.2982C172.418 25.2982 173.516 24.1473 173.516 22.7358C173.516 21.326 172.426 20.1897 170.986 20.1897H170.984ZM171.612 23.0267L172.412 24.1469H171.737L171.017 23.1193H170.397V24.1469H169.833V21.1776H171.157C171.847 21.1776 172.3 21.5306 172.3 22.1248C172.303 22.6117 172.021 22.9091 171.614 23.0268L171.612 23.0267ZM171.134 21.6871H170.397V22.6263H171.134C171.501 22.6263 171.721 22.4465 171.721 22.1562C171.721 21.8507 171.5 21.6871 171.134 21.6871L171.134 21.6871Z" fill="white"/>
</g>
<defs>
<clipPath id="clip0_224_222">
<rect width="173.376" height="52" fill="white" transform="translate(0.437256)"/>
</clipPath>
</defs>
</svg>
