<svg width="27" height="27" viewBox="0 0 27 27" fill="none" xmlns="http://www.w3.org/2000/svg">
<path d="M13.5 0.599609C6.32399 0.599609 0.499992 6.42361 0.499992 13.5996C0.499992 20.7756 6.32399 26.5996 13.5 26.5996C20.676 26.5996 26.5 20.7756 26.5 13.5996C26.5 6.42361 20.676 0.599609 13.5 0.599609ZM19.532 9.43961C19.337 11.4936 18.492 16.4856 18.063 18.7866C17.881 19.7616 17.517 20.0866 17.179 20.1256C16.425 20.1906 15.853 19.6316 15.125 19.1506C13.981 18.3966 13.331 17.9286 12.226 17.2006C10.939 16.3556 11.771 15.8876 12.512 15.1336C12.707 14.9386 16.035 11.9096 16.1 11.6366C16.109 11.5953 16.1078 11.5523 16.0965 11.5116C16.0852 11.4708 16.0641 11.4334 16.035 11.4026C15.957 11.3376 15.853 11.3636 15.762 11.3766C15.645 11.4026 13.825 12.6116 10.276 15.0036C9.75599 15.3546 9.28799 15.5366 8.87199 15.5236C8.40399 15.5106 7.51999 15.2636 6.85699 15.0426C6.03799 14.7826 5.40099 14.6396 5.45299 14.1846C5.47899 13.9506 5.80399 13.7166 6.41499 13.4696C10.211 11.8186 12.733 10.7266 13.994 10.2066C17.608 8.69861 18.349 8.43861 18.843 8.43861C18.947 8.43861 19.194 8.46461 19.35 8.59461C19.48 8.69861 19.519 8.84161 19.532 8.94561C19.519 9.02361 19.545 9.25761 19.532 9.43961Z" fill="white"/>
</svg>
