<svg width="219" height="58" viewBox="0 0 219 58" fill="none" xmlns="http://www.w3.org/2000/svg">
<path d="M67.8128 26.223V22.002L87.6868 22C87.7003 22 87.7133 22.0054 87.7229 22.0149C87.7324 22.0245 87.7378 22.0375 87.7378 22.051V26.175C87.7378 26.1883 87.7325 26.201 87.7232 26.2104C87.7138 26.2197 87.7011 26.225 87.6878 26.225H80.3878C80.3679 26.225 80.3488 26.2329 80.3348 26.247C80.3207 26.261 80.3128 26.2801 80.3128 26.3V47.028C80.3128 47.0405 80.3079 47.0524 80.299 47.0612C80.2902 47.07 80.2783 47.075 80.2658 47.075H75.3128C75.2995 47.075 75.2868 47.0697 75.2774 47.0604C75.2681 47.051 75.2628 47.0383 75.2628 47.025V26.3C75.2628 26.2801 75.2549 26.261 75.2408 26.247C75.2268 26.2329 75.2077 26.225 75.1878 26.225L67.8128 26.223Z" fill="white"/>
<path d="M112.65 22.001H107.952C107.917 22.001 107.889 22.0292 107.889 22.064V47.012C107.889 47.0468 107.917 47.075 107.952 47.075H112.65C112.685 47.075 112.713 47.0468 112.713 47.012V22.064C112.713 22.0292 112.685 22.001 112.65 22.001Z" fill="white"/>
<path d="M97.2927 47.3819C91.8457 48.0529 87.7297 45.4119 87.0887 39.7739C86.8527 37.7069 87.0227 35.6019 87.7417 33.6959C88.7977 30.8969 91.2497 28.8999 94.2197 28.5649C97.3137 28.2169 100.303 29.1789 102.145 31.7359C103.663 33.8419 104.024 36.8069 103.958 39.3099C103.956 39.3532 103.934 39.3749 103.891 39.3749H91.9647C91.9594 39.3749 91.9542 39.3759 91.9494 39.3779C91.9445 39.3799 91.9401 39.3829 91.9364 39.3866C91.9327 39.3903 91.9298 39.3947 91.9277 39.3996C91.9257 39.4044 91.9247 39.4096 91.9247 39.4149C91.9427 41.0089 92.5307 42.6039 93.9947 43.4199C95.0157 43.9889 96.5057 44.0989 97.5227 43.4259C98.2457 42.9489 98.6657 42.1599 98.8897 41.3439C98.8997 41.3079 98.9234 41.2929 98.9607 41.2989L103.636 42.0839C103.644 42.0854 103.652 42.0888 103.659 42.0937C103.666 42.0986 103.672 42.105 103.676 42.1125C103.681 42.1199 103.683 42.1282 103.684 42.1367C103.685 42.1452 103.684 42.1538 103.681 42.1619C102.603 45.0859 100.48 46.9889 97.2927 47.3819ZM92.0357 36.4199L99.1377 36.4319C99.1443 36.4319 99.1507 36.4293 99.1554 36.4246C99.1601 36.4199 99.1627 36.4135 99.1627 36.4069L99.1637 36.0829C99.1655 35.0478 98.8001 34.0545 98.1478 33.3214C97.4956 32.5883 96.6099 32.1756 95.6857 32.1739H95.5037C95.046 32.1731 94.5926 32.2732 94.1694 32.4686C93.7463 32.664 93.3615 32.9508 93.0373 33.3127C92.713 33.6746 92.4555 34.1044 92.2796 34.5777C92.1036 35.0509 92.0126 35.5583 92.0117 36.0709L92.0107 36.3949C92.0107 36.4015 92.0133 36.4079 92.018 36.4126C92.0227 36.4173 92.0291 36.4199 92.0357 36.4199ZM132.892 42.1369C131.904 45.1359 129.529 47.0429 126.389 47.4059C123.692 47.7179 120.676 47.2039 118.698 45.1979C116.194 42.6569 115.818 38.4709 116.508 35.1749C117.481 30.5259 121.501 27.8319 126.229 28.6229C131.728 29.5419 133.3 34.4299 133.181 39.3109C133.18 39.3281 133.173 39.3443 133.161 39.3563C133.148 39.3682 133.132 39.3749 133.115 39.3749H121.19C121.165 39.3749 121.153 39.3872 121.153 39.4119C121.155 41.5259 122.269 43.5419 124.467 43.8409C126.468 44.1139 127.522 43.1519 128.12 41.3409C128.131 41.3082 128.154 41.2946 128.188 41.2999L132.859 42.0839C132.89 42.0892 132.901 42.1069 132.892 42.1369ZM121.256 36.4159L128.358 36.4399C128.362 36.4399 128.366 36.4391 128.37 36.4375C128.374 36.4359 128.377 36.4335 128.38 36.4305C128.383 36.4276 128.386 36.424 128.387 36.4201C128.389 36.4163 128.39 36.4121 128.39 36.4079L128.391 36.1179C128.392 35.6012 128.304 35.0893 128.13 34.6114C127.956 34.1334 127.7 33.6988 127.377 33.3324C127.054 32.966 126.67 32.6749 126.247 32.4758C125.823 32.2766 125.369 32.1734 124.911 32.1719H124.731C123.805 32.1689 122.915 32.5802 122.257 33.3155C121.6 34.0508 121.229 35.0498 121.225 36.0929L121.224 36.3829C121.224 36.3872 121.224 36.3915 121.226 36.3955C121.227 36.3995 121.23 36.4031 121.233 36.4062C121.236 36.4092 121.239 36.4117 121.243 36.4134C121.247 36.415 121.251 36.4159 121.256 36.4159ZM145.682 54.4499H144.482C141.794 54.3549 138.774 53.9039 137.303 51.3829C136.771 50.4716 136.568 49.4489 136.692 48.3149C136.695 48.2876 136.711 48.2756 136.739 48.2789L142.105 48.9329C142.119 48.9346 142.132 48.9406 142.143 48.95C142.154 48.9594 142.162 48.9719 142.166 48.9859C142.304 49.5179 142.386 49.9759 142.843 50.2939C143.839 50.9869 145.9 50.8169 146.956 50.5389C148.058 50.2482 148.687 49.5342 148.843 48.3969C149.029 47.0369 148.934 45.5969 148.949 44.2289C148.949 44.222 148.947 44.2152 148.943 44.2095C148.939 44.2038 148.933 44.1994 148.927 44.1971C148.92 44.1948 148.913 44.1946 148.906 44.1965C148.9 44.1985 148.894 44.2024 148.89 44.2079C147.6 45.9039 145.929 46.9959 143.762 47.0679C139.414 47.2099 136.657 43.7529 136.149 39.7519C135.906 37.8426 136.02 35.9842 136.492 34.1769C137.331 30.9549 139.998 28.6349 143.364 28.5049C145.846 28.4089 147.738 29.4659 149.22 31.4069C149.223 31.4109 149.227 31.4138 149.232 31.4152C149.237 31.4167 149.242 31.4166 149.247 31.4149C149.251 31.4132 149.255 31.4101 149.258 31.406C149.261 31.4019 149.263 31.3969 149.263 31.3919V28.9499C149.263 28.9166 149.279 28.8999 149.313 28.8999H153.712C153.725 28.8999 153.738 28.9053 153.748 28.9148C153.757 28.9244 153.763 28.9374 153.763 28.9509C153.766 34.5236 153.761 40.1042 153.747 45.6929C153.741 48.0439 153.517 50.8259 151.721 52.5149C150.134 54.0079 147.757 54.3849 145.682 54.4499ZM141.329 40.3689C142.393 44.2979 147.542 43.9309 148.665 40.3229C149.131 38.8242 149.186 37.2402 148.83 35.5709C148.32 33.1859 146.121 31.5189 143.663 32.3969C140.589 33.4959 140.659 37.8979 141.329 40.3689ZM162.788 31.3979C162.788 31.4052 162.79 31.4123 162.795 31.4181C162.799 31.4239 162.806 31.4281 162.813 31.43C162.82 31.4319 162.827 31.4315 162.834 31.4287C162.841 31.426 162.847 31.4212 162.851 31.4149C163.192 30.8456 163.577 30.3132 164.005 29.8179C165.563 28.0149 168.153 28.2299 170.051 29.3919C170.077 29.4086 170.085 29.4316 170.075 29.4609L168.635 33.5199C168.631 33.5303 168.625 33.5398 168.617 33.5475C168.609 33.5552 168.599 33.561 168.589 33.5644C168.578 33.5677 168.567 33.5687 168.556 33.567C168.545 33.5654 168.535 33.5612 168.526 33.5549C167.079 32.5569 164.998 32.4059 164.016 34.1269C163.265 35.4439 163.219 37.3519 163.19 38.8819C163.139 41.5706 163.123 44.2756 163.141 46.9969C163.141 47.0071 163.139 47.0172 163.135 47.0267C163.131 47.0361 163.125 47.0447 163.118 47.052C163.111 47.0592 163.102 47.065 163.093 47.0689C163.083 47.0729 163.073 47.0749 163.063 47.0749H158.388C158.354 47.0749 158.338 47.0582 158.338 47.0249V28.9499C158.338 28.9366 158.343 28.9239 158.352 28.9145C158.362 28.9052 158.374 28.8999 158.388 28.8999H162.713C162.733 28.8999 162.752 28.9078 162.766 28.9219C162.78 28.9359 162.788 28.955 162.788 28.9749V31.3979ZM182.158 35.1739C182.288 33.0989 181.567 32.3809 179.573 32.1859C177.739 32.0059 176.401 32.5309 175.777 34.3649C175.758 34.4202 175.72 34.4426 175.663 34.4319L171.437 33.6699C171.43 33.6687 171.425 33.6663 171.419 33.6627C171.414 33.6592 171.41 33.6546 171.406 33.6492C171.403 33.6439 171.401 33.6379 171.4 33.6316C171.399 33.6254 171.399 33.619 171.401 33.6129C172.057 31.1779 173.588 29.3869 176.115 28.8269C178.184 28.3679 180.375 28.3949 182.431 28.7549C183.332 28.9119 184.22 29.2899 184.956 29.7899C186.717 30.9859 186.867 32.9919 186.87 34.9999C186.874 37.1586 186.864 39.3169 186.84 41.4749C186.818 43.4449 187.031 45.2079 187.91 47.0009C187.914 47.0087 187.916 47.0174 187.915 47.0262C187.915 47.0349 187.912 47.0434 187.907 47.0508C187.903 47.0583 187.896 47.0644 187.889 47.0686C187.881 47.0728 187.872 47.075 187.864 47.0749H183.225C183.185 47.0749 183.158 47.0556 183.146 47.0169L182.572 45.1719C182.569 45.1625 182.563 45.1541 182.556 45.1473C182.549 45.1405 182.541 45.1356 182.531 45.1331C182.522 45.1306 182.512 45.1306 182.502 45.133C182.493 45.1354 182.484 45.1402 182.477 45.1469C180.253 47.2816 177.607 47.9516 174.537 47.1569C174.335 47.1049 174.041 46.9789 173.657 46.7789C171.94 45.8859 170.942 44.2169 170.888 42.3199C170.823 40.0109 172.004 38.1409 174.212 37.2939C176.763 36.3159 179.524 36.1659 182.107 35.2419C182.139 35.2306 182.156 35.2079 182.158 35.1739ZM176.234 40.2689C175.058 41.5529 175.959 43.5979 177.545 43.9909C178.763 44.2919 180.134 43.8699 181.056 43.0659C182.378 41.9149 182.197 40.0629 182.165 38.4089C182.164 38.3729 182.146 38.3599 182.112 38.3699C180.801 38.7379 179.76 38.9982 178.989 39.1509C178.097 39.3279 176.849 39.5969 176.234 40.2689ZM218.013 34.7559V47.0689L213.266 47.0709C213.229 47.0716 213.211 47.0536 213.211 47.0169C213.215 43.5289 213.215 40.0316 213.213 36.5249C213.212 35.5099 213.17 33.9199 212.654 33.1269C211.981 32.0939 210.468 31.9609 209.397 32.4419C207.399 33.3389 207.128 35.4349 207.115 37.3819C207.093 40.5972 207.084 43.8116 207.086 47.0249C207.086 47.0382 207.081 47.0509 207.071 47.0602C207.062 47.0696 207.05 47.0749 207.037 47.0749H202.361C202.298 47.0749 202.267 47.0436 202.267 46.9809C202.262 43.3642 202.261 39.7456 202.264 36.1249C202.264 35.6509 202.233 35.0856 202.172 34.4289C201.893 31.4549 198.37 31.6599 196.986 33.5289C196.373 34.3579 196.152 35.6679 196.133 36.6999C196.079 39.4792 196.068 42.9176 196.099 47.0149C196.099 47.0549 196.079 47.0749 196.039 47.0749H191.338C191.324 47.0749 191.312 47.0696 191.302 47.0602C191.293 47.0509 191.288 47.0382 191.288 47.0249V28.9999C191.288 28.9734 191.298 28.9479 191.317 28.9292C191.336 28.9104 191.361 28.8999 191.388 28.8999H195.637C195.656 28.8999 195.675 28.9077 195.689 28.9216C195.703 28.9355 195.711 28.9543 195.711 28.9739L195.718 31.3189C195.718 31.325 195.72 31.331 195.723 31.336C195.727 31.341 195.732 31.3448 195.738 31.3469C195.743 31.349 195.75 31.3492 195.756 31.3476C195.761 31.346 195.767 31.3426 195.771 31.3379C197.376 29.3779 199.575 28.2649 202.13 28.5309C204.015 28.7279 205.537 29.6379 206.464 31.3209C206.469 31.33 206.476 31.3377 206.484 31.3434C206.493 31.3491 206.503 31.3526 206.513 31.3536C206.523 31.3545 206.534 31.353 206.543 31.349C206.553 31.3451 206.561 31.3389 206.568 31.3309C208.528 28.9879 211.208 27.8869 214.225 28.7969C216.124 29.3699 217.413 30.7469 217.813 32.7239C217.897 33.1426 217.964 33.8199 218.013 34.7559Z" fill="white"/>
<path d="M24.0126 4.69971C13.2486 4.69971 4.5126 13.4357 4.5126 24.1997C4.5126 34.9637 13.2486 43.6997 24.0126 43.6997C34.7766 43.6997 43.5126 34.9637 43.5126 24.1997C43.5126 13.4357 34.7766 4.69971 24.0126 4.69971ZM33.0606 17.9597C32.7681 21.0407 31.5006 28.5287 30.8571 31.9802C30.5841 33.4427 30.0381 33.9302 29.5311 33.9887C28.4001 34.0862 27.5421 33.2477 26.4501 32.5262C24.7341 31.3952 23.7591 30.6932 22.1016 29.6012C20.1711 28.3337 21.4191 27.6317 22.5306 26.5007C22.8231 26.2082 27.8151 21.6647 27.9126 21.2552C27.9261 21.1932 27.9243 21.1288 27.9074 21.0676C27.8904 21.0065 27.8587 20.9504 27.8151 20.9042C27.6981 20.8067 27.5421 20.8457 27.4056 20.8652C27.2301 20.9042 24.5001 22.7177 19.1766 26.3057C18.3966 26.8322 17.6946 27.1052 17.0706 27.0857C16.3686 27.0662 15.0426 26.6957 14.0481 26.3642C12.8196 25.9742 11.8641 25.7597 11.9421 25.0772C11.9811 24.7262 12.4686 24.3752 13.3851 24.0047C19.0791 21.5282 22.8621 19.8902 24.7536 19.1102C30.1746 16.8482 31.2861 16.4582 32.0271 16.4582C32.1831 16.4582 32.5536 16.4972 32.7876 16.6922C32.9826 16.8482 33.0411 17.0627 33.0606 17.2187C33.0411 17.3357 33.0801 17.6867 33.0606 17.9597Z" fill="white"/>
</svg>
