<svg width="265" height="53" viewBox="0 0 265 53" fill="none" xmlns="http://www.w3.org/2000/svg">
<path d="M253.18 19.6704C255.517 19.6704 257.352 20.4172 258.691 21.9107C260.054 23.3807 260.735 25.4433 260.735 28.0986V38.4115H258.181L257.34 35.531C256.733 36.4555 255.918 37.2262 254.896 37.8424C253.873 38.4589 252.646 38.7671 251.21 38.7671C249.944 38.7671 248.813 38.5181 247.816 38.0204C246.818 37.5224 246.039 36.8349 245.481 35.9578C244.921 35.0568 244.64 34.0492 244.64 32.9349C244.64 31.2042 245.346 29.8173 246.758 28.7743C248.169 27.731 250.213 27.2096 252.889 27.2096H257.159C257.061 25.7633 256.647 24.6491 255.918 23.8667C255.188 23.0605 254.214 22.6577 252.999 22.6577C252.074 22.6577 251.259 22.8711 250.554 23.2976C249.847 23.7244 249.313 24.2815 248.948 24.9691L245.627 24.4357C246.113 22.9657 247.049 21.8041 248.436 20.9506C249.823 20.0972 251.405 19.6704 253.18 19.6704ZM251.977 35.8155C253.509 35.8155 254.75 35.3294 255.698 34.3575C256.673 33.3616 257.159 31.9984 257.159 30.2678V30.0544H252.999C249.835 30.0544 248.255 30.9791 248.255 32.8283C248.255 33.7292 248.595 34.4523 249.275 34.9976C249.956 35.5428 250.857 35.8155 251.977 35.8155Z" fill="white"/>
<path d="M85.5202 39.3829H78.9661L69.6404 13.5H74.4718L81.9248 34.8305H82.6738L90.3891 13.5H95.1454L85.5202 39.3829Z" fill="white"/>
<path d="M106.874 25.9826L119.009 39.3829H113.092L103.204 28.2955H102.081V39.3829H97.5863V13.5H102.081V24.0367H103.167L112.529 13.5H118.073L106.874 25.9826Z" fill="white"/>
<path d="M132.583 39.3829H128.2V13.5H135.242L142.433 33.0682H143.032L150.373 13.5H157.264V39.3829H152.882V19.3741H152.283L144.754 39.3829H140.56L133.182 19.3741H132.583V39.3829Z" fill="white"/>
<path d="M175.607 19.6704H179.989L172.012 41.1477C171.338 42.9589 170.464 44.2683 169.391 45.076C168.342 45.8837 166.931 46.2875 165.158 46.2875H162.199L161.824 42.4327H165.458C166.182 42.4327 166.73 42.2735 167.105 41.9554C167.505 41.6617 167.842 41.1354 168.117 40.3767L168.342 39.7893L159.69 19.6704H164.297L170.027 33.4379H170.625L175.607 19.6704Z" fill="white"/>
<path d="M192.788 29.3994C193.862 29.7177 194.748 30.2683 195.447 31.0515C196.17 31.8103 196.533 32.7525 196.533 33.8784C196.533 34.9309 196.195 35.8854 195.522 36.742C194.873 37.5743 193.924 38.2473 192.675 38.7613C191.452 39.2508 190.042 39.4955 188.443 39.4955C186.32 39.4955 184.498 39.006 182.975 38.027C181.477 37.048 180.49 35.7508 180.017 34.1354L183.987 33.4747C184.41 34.3313 184.973 34.9554 185.672 35.347C186.37 35.7142 187.283 35.8977 188.405 35.8977C189.629 35.8977 190.565 35.6897 191.215 35.2735C191.889 34.8575 192.225 34.2823 192.225 33.548C192.225 32.104 190.953 31.3819 188.405 31.3819H185.972V27.7107H188.405C189.554 27.7107 190.428 27.527 191.028 27.1599C191.627 26.7683 191.927 26.242 191.927 25.5813C191.927 24.8714 191.614 24.3085 190.99 23.8924C190.365 23.4764 189.592 23.2683 188.668 23.2683C187.744 23.2683 186.908 23.4887 186.159 23.9292C185.434 24.3697 184.873 24.9694 184.473 25.7282L180.503 25.0673C181.078 23.305 182.102 21.9712 183.574 21.0655C185.073 20.1354 186.82 19.6704 188.818 19.6704C190.242 19.6704 191.514 19.9029 192.638 20.3679C193.762 20.833 194.635 21.4817 195.259 22.3138C195.909 23.1459 196.233 24.0883 196.233 25.1407C196.233 26.1932 195.909 27.0988 195.259 27.8575C194.635 28.6162 193.812 29.1302 192.788 29.3994Z" fill="white"/>
<path d="M199.898 38.7613V19.6704H204.206V25.104H207.239C208.787 25.104 210.161 25.3977 211.359 25.9852C212.558 26.548 213.494 27.3558 214.168 28.4082C214.842 29.4362 215.179 30.611 215.179 31.9327C215.179 33.2543 214.842 34.4414 214.168 35.4939C213.494 36.5218 212.546 37.3295 211.322 37.9169C210.123 38.4799 208.762 38.7613 207.239 38.7613H199.898ZM221.808 38.7613H217.502V19.6704H221.808V38.7613ZM207.239 35.09C208.313 35.09 209.187 34.7963 209.861 34.2089C210.536 33.6215 210.872 32.8628 210.872 31.9327C210.872 31.0025 210.536 30.2439 209.861 29.6564C209.187 29.069 208.313 28.7753 207.239 28.7753H204.206V35.09H207.239Z" fill="white"/>
<path d="M243.674 38.7613H238.019L231.278 31.1617H230.229V38.7613H225.922V19.6704H230.229V27.0865H231.278L237.794 19.6704H242.925L234.723 28.8488L243.674 38.7613Z" fill="white"/>
<path fill-rule="evenodd" clip-rule="evenodd" d="M25.6676 2.4255H27.704C33.504 2.4255 37.7106 2.4285 40.9208 2.86012C44.0899 3.28625 46.0735 4.10625 47.5538 5.58662C49.0341 7.06687 49.8543 9.0505 50.2803 12.2196C50.5146 13.9626 50.6226 15.9994 50.6724 18.4255C47.418 15.7941 41.5384 11.1816 34.8313 11.1816C30.1983 11.1816 26.4955 13.7277 22.338 16.5866C17.2811 20.0637 11.5516 24.0036 2.65689 24.3875C2.65876 19.1244 2.68626 15.233 3.09139 12.2196C3.51739 9.05062 4.33751 7.06687 5.81789 5.58662C7.29814 4.10625 9.28176 3.28625 12.4509 2.86012C15.661 2.4285 19.8676 2.4255 25.6676 2.4255ZM1.23126 27.8622C1.23126 27.7331 1.23126 27.6034 1.23126 27.4727V25.4364C1.23126 13.917 1.23126 8.15725 4.80989 4.57862C8.38851 0.999999 14.1483 1 25.6676 1H27.704C39.2234 1 44.9831 0.999999 48.5618 4.57862C51.4743 7.49125 52.0164 11.8485 52.1173 19.5797C52.1404 21.3479 52.1404 23.2924 52.1404 25.4365V27.4727C52.1404 38.9921 52.1404 44.7519 48.5618 48.3305C45.13 51.7624 39.6924 51.9031 29.0929 51.9089H29.0026C28.578 51.9091 28.1453 51.9091 27.704 51.9091H25.6676C25.2261 51.9091 24.793 51.9091 24.3683 51.9089H24.2788C15.6654 51.9043 10.4608 51.8104 6.97101 49.9338C6.16639 49.501 5.45289 48.9735 4.80989 48.3305C1.27189 44.7925 1.23176 39.1225 1.23126 27.8622ZM40.6855 26.9509C40.6855 25.6928 41.7183 24.6727 42.9764 24.6727C44.2346 24.6727 45.2674 25.6928 45.2674 26.9509V36.14C45.2674 37.3983 44.2346 38.4182 42.9764 38.4182C41.7183 38.4182 40.6855 37.3983 40.6855 36.14V26.9509ZM34.8324 18.8185C33.5741 18.8185 32.5414 19.8384 32.5414 21.0966V41.9948C32.5414 43.253 33.5741 44.273 34.8324 44.273C36.0905 44.273 37.1233 43.253 37.1233 41.9948V21.0966C37.1233 19.8384 36.0905 18.8185 34.8324 18.8185ZM24.3958 26.9509C24.3958 25.6928 25.4285 24.6727 26.6868 24.6727C27.9449 24.6727 28.9776 25.6928 28.9776 26.9509V36.14C28.9776 37.3983 27.9449 38.4182 26.6868 38.4182C25.4285 38.4182 24.3958 37.3983 24.3958 36.14V26.9509ZM18.5395 27.9818C17.2813 27.9818 16.2486 29.0017 16.2486 30.26V32.8309C16.2486 34.089 17.2813 35.109 18.5395 35.109C19.7978 35.109 20.8304 34.089 20.8304 32.8309V30.26C20.8304 29.0017 19.7978 27.9818 18.5395 27.9818ZM8.10301 30.26C8.10301 29.0017 9.13564 27.9818 10.3939 27.9818C11.6521 27.9818 12.6848 29.0017 12.6848 30.26V32.8309C12.6848 34.089 11.6521 35.109 10.3939 35.109C9.13564 35.109 8.10301 34.089 8.10301 32.8309V30.26Z" fill="white"/>
</svg>
