<svg width="345" height="43" viewBox="0 0 345 43" fill="none" xmlns="http://www.w3.org/2000/svg">
<g clip-path="url(#clip0_221_249)">
<mask id="mask0_221_249" style="mask-type:luminance" maskUnits="userSpaceOnUse" x="0" y="0" width="345" height="42">
<path d="M344.878 0.700195H0.0904541V41.9402H344.878V0.700195Z" fill="white"/>
</mask>
<g mask="url(#mask0_221_249)">
<path d="M0.696406 16.704C0.696406 20.6379 2.58941 23.003 5.95737 25.4198L0.0904541 34.1473H4.93337L11.479 24.3864L9.20789 22.8363C6.44589 20.9832 5.12125 19.5059 5.12125 16.4433C5.12125 13.6813 7.05185 11.7906 10.758 11.7906H12.7262V34.1521H17.2285V8.34277H10.7204C4.13717 8.34277 0.694054 11.7107 0.694054 16.704H0.696406Z" fill="white"/>
<path d="M31.2666 22.8341H25.3645V15.457H20.9373V34.1475H25.3645V26.3148H31.2666V34.1475H35.7314V15.457H31.2666V22.8341Z" fill="white"/>
<path d="M89.9476 15.457H85.4852L79.28 24.0836V15.457H74.8528V34.1475H79.28V24.9526L85.786 34.1475H90.8188L83.7448 24.0836L89.9476 15.457Z" fill="white"/>
<path d="M99.5952 18.6344C101.298 18.6344 102.963 19.2404 103.87 19.7688V16.0603C102.923 15.5295 101.298 15.1514 99.1396 15.1514C93.4652 15.1514 90.5504 19.1628 90.5504 24.7996C90.5504 30.9296 93.3876 34.3351 99.3276 34.3351C101.333 34.3351 102.77 33.9946 103.867 33.2007V29.5697C102.733 30.3635 101.408 30.8568 99.5552 30.8568C96.4152 30.8568 95.0904 28.4729 95.0904 24.6892C95.0904 20.6777 96.718 18.6368 99.5928 18.6368L99.5952 18.6344Z" fill="white"/>
<path d="M53.6281 15.457H40.7645V17.0471C40.7645 21.6246 40.4613 27.4892 38.9113 30.6293H37.5115V38.2342H41.6357V34.1476H51.5493V38.2342H55.5985V30.6293H53.6305V15.457H53.6281ZM49.2009 30.6293H42.9957C44.2053 27.7921 44.5457 22.7214 44.5457 19.4685V18.9377H49.1985V30.6293H49.2009Z" fill="white"/>
<path d="M64.5985 15.1538C59.2645 15.1538 56.6905 19.2404 56.6905 24.8396C56.6905 31.2326 59.8681 34.3352 65.5049 34.3352C68.3421 34.3352 70.4229 33.7292 71.7101 32.8603V29.2668C70.3477 30.1382 68.0393 30.8568 65.8829 30.8568C62.6373 30.8568 61.3997 29.3772 61.2469 26.3545H71.8605V24.0458C71.8605 17.5752 69.0233 15.1538 64.5961 15.1538H64.5985ZM64.5233 18.6345C66.7545 18.6345 67.3981 20.4124 67.3981 22.7211V23.0992H61.2421C61.3477 20.1682 62.4069 18.6345 64.5233 18.6345Z" fill="white"/>
<path d="M152.489 16.779L152.376 15.9476L145.566 14.3576L149.084 9.13651L148.668 8.57052L143.182 11.255L143.788 3.95307L143.182 3.65244L139.776 9.51467L135.767 0.700195H135.011L135.992 9.32675L125.966 1.34372L125.097 1.57154L132.815 11.255L117.492 6.14903L116.773 6.94287L130.468 14.6981L111.628 16.2882L111.437 17.4226L131.037 19.541L114.655 32.9353L115.411 33.957L134.82 23.3623L130.999 41.9402H132.171L139.663 24.4614L144.203 38.1188L144.997 37.5128L143.294 23.8179L150.218 31.6483L150.636 30.8544L145.49 21.1686L152.792 23.7428L152.867 22.9466L146.777 18.0661L152.489 16.779Z" fill="white"/>
<path d="M243.649 24.5223C247.113 23.8247 248.778 22.122 248.778 20.337C248.778 16.5909 243.557 14.7754 236.671 14.7754C231.941 14.7754 228.385 15.6843 225.926 16.9314V20.9805C228.082 19.8461 231.638 18.7493 235.346 18.7493C237.996 18.7493 239.546 19.3177 239.546 20.755C239.546 22.1924 238.221 22.7608 235.081 22.7608H230.769V26.7723H235.043C239.092 26.7723 240.114 27.3406 240.114 28.778C240.114 29.9899 238.564 30.8965 234.931 30.8965C229.975 30.8965 227.098 29.384 225.358 28.5502V32.712C226.87 33.6209 230.391 34.7177 235.952 34.7177C244.654 34.7177 249.459 32.4466 249.459 28.7404C249.459 26.3683 247.369 25.0554 243.649 24.527V24.5223Z" fill="white"/>
<path d="M220.099 15.457L213.729 27.2613L206.82 15.457H196.528L208.778 35.7634L205.079 41.6372H210.338L215.521 33.0883L225.358 15.457H220.099Z" fill="white"/>
<path d="M177.361 23.0054L170.914 8.34277H160.056V34.1473H164.18V15.1679L172.654 34.1473H177.347L185.708 15.1633V34.1473H194.94V8.34277H183.627L177.361 23.0054Z" fill="white"/>
<path d="M316.238 15.457H309.315L299.326 22.8717V15.457H290.131V34.1475H299.326V26.3524L305.872 34.1475H317.714L307.013 22.1741L316.238 15.457Z" fill="white"/>
<path d="M265.047 20.5629H261.264V15.4546H252.031V34.1451H265.007C271.931 34.1451 276.206 31.7237 276.206 27.2213C276.206 23.1723 272.422 20.5629 265.045 20.5629H265.047ZM263.76 30.2487H261.264V24.4593H263.76C265.766 24.4593 266.938 25.4058 266.938 27.334C266.938 29.5653 265.916 30.2463 263.76 30.2463V30.2487Z" fill="white"/>
<path d="M336.026 15.4944L335.821 17.843C333.947 16.1074 331.157 15.1914 327.589 15.1914C321.309 15.1914 316.163 18.5969 316.163 24.9148C316.163 31.2326 321.044 34.6758 327.552 34.6758C331.051 34.6758 333.912 33.7434 335.84 31.9372L336.026 34.145H344.88V15.4944H336.026ZM330.652 30.514C327.512 30.514 325.581 28.9333 325.581 24.8772C325.581 20.5722 327.587 19.3532 330.652 19.3532C333.452 19.3532 335.685 20.5322 335.685 24.8772C335.685 29.2222 333.794 30.514 330.652 30.514Z" fill="white"/>
<path d="M286.463 15.457H277.268V34.1475H286.463V15.457Z" fill="white"/>
</g>
</g>
<defs>
<clipPath id="clip0_221_249">
<rect width="344.8" height="41.6" fill="white" transform="translate(0.0904541 0.700195)"/>
</clipPath>
</defs>
</svg>
