<svg width="272" height="40" viewBox="0 0 272 40" fill="none" xmlns="http://www.w3.org/2000/svg">
<g clip-path="url(#clip0_221_318)">
<path fill-rule="evenodd" clip-rule="evenodd" d="M50.3271 1.30022C52.7487 1.95219 54.6548 3.8561 55.2981 6.27119C56.4699 10.653 56.4699 19.8 56.4699 19.8C56.4699 19.8 56.4699 28.947 55.2981 33.3289C54.6461 35.7505 52.7422 37.6565 50.3271 38.2998C45.9453 39.4716 28.366 39.4716 28.366 39.4716C28.366 39.4716 10.7954 39.4716 6.40495 38.2998C3.98336 37.6479 2.07728 35.744 1.43398 33.3289C0.262177 28.947 0.262177 19.8 0.262177 19.8C0.262177 19.8 0.262177 10.653 1.43398 6.27119C2.08595 3.8496 3.98986 1.94352 6.40495 1.30022C10.7954 0.128418 28.366 0.128418 28.366 0.128418C28.366 0.128418 45.9453 0.128418 50.3271 1.30022ZM37.3527 19.8001L22.7495 28.2323V11.3678L37.3527 19.8001Z" fill="white"/>
<path d="M81.8468 35.9217C80.7378 35.1701 79.9428 34.0091 79.4771 32.4258C79.0115 30.8424 78.771 28.7414 78.771 26.1119V22.5358C78.771 19.8803 79.0396 17.7511 79.5768 16.1418C80.114 14.5324 80.9544 13.3606 82.0893 12.6285C83.2243 11.8942 84.7189 11.5195 86.5686 11.5195C88.3924 11.5195 89.8501 11.8943 90.9504 12.6459C92.0508 13.3975 92.8544 14.5693 93.3655 16.1591C93.8745 17.7511 94.1258 19.8781 94.1258 22.525V26.101C94.1258 28.7306 93.8745 30.8403 93.3829 32.4323C92.8912 34.0243 92.0854 35.1961 90.9678 35.9282C89.8588 36.6625 88.3469 37.0372 86.443 37.0372C84.4936 37.048 82.9557 36.6733 81.8468 35.9217ZM88.0783 32.0597C88.3816 31.254 88.544 29.9414 88.544 28.1263V20.4456C88.544 18.676 88.3924 17.3872 88.0783 16.5641C87.7751 15.7497 87.2293 15.3382 86.4517 15.3382C85.7001 15.3382 85.1737 15.7497 84.8597 16.5641C84.5564 17.3786 84.394 18.6738 84.394 20.4456V28.1263C84.394 29.95 84.5369 31.2648 84.8315 32.0597C85.1261 32.8655 85.6632 33.2662 86.4408 33.2662C87.2293 33.2662 87.7664 32.8633 88.0783 32.0597Z" fill="white"/>
<path d="M167.213 26.1749V27.4182C167.213 29.0016 167.259 30.182 167.356 30.977C167.445 31.7632 167.642 32.3459 167.937 32.7033C168.231 33.0607 168.688 33.2491 169.305 33.2491C170.137 33.2491 170.709 32.9264 171.012 32.2831C171.316 31.6398 171.487 30.5654 171.513 29.0644L176.297 29.3416C176.323 29.5561 176.334 29.8506 176.334 30.2275C176.334 32.5083 175.708 34.2065 174.465 35.3328C173.222 36.4591 171.461 37.0223 169.18 37.0223C166.444 37.0223 164.529 36.1645 163.431 34.4469C162.331 32.7293 161.785 30.0824 161.785 26.489V22.1873C161.785 18.4856 162.357 15.7933 163.492 14.0865C164.627 12.3883 166.576 11.5371 169.34 11.5371C171.244 11.5371 172.702 11.8858 173.722 12.5833C174.742 13.2807 175.457 14.3637 175.877 15.8388C176.289 17.3138 176.503 19.352 176.503 21.9469V26.1684H167.213V26.1749ZM167.919 15.8041C167.642 16.1529 167.454 16.7247 167.356 17.5109C167.259 18.2972 167.213 19.5058 167.213 21.1065V22.8761H171.272V21.1065C171.272 19.5232 171.218 18.3254 171.112 17.5109C171.004 16.6965 170.809 16.116 170.531 15.7846C170.254 15.4532 169.817 15.2843 169.225 15.2843C168.634 15.2756 168.196 15.4554 167.919 15.8041Z" fill="white"/>
<path d="M68.3439 25.7114L62.03 2.91855H67.5381L69.7475 13.246C70.3106 15.7954 70.7222 17.9592 70.9907 19.7549H71.151C71.3395 18.4683 71.751 16.3131 72.3943 13.2807L74.6838 2.90771H80.1919L73.8065 25.7092V36.6453H68.3439V25.7114Z" fill="white"/>
<path d="M112.034 12.0024V36.6364H107.698L107.215 33.6235H107.098C105.918 35.9043 104.148 37.0392 101.796 37.0392C100.16 37.0392 98.9516 36.5021 98.174 35.4299C97.3965 34.3577 97.0109 32.6856 97.0109 30.4048V12.0024H102.554V30.0907C102.554 31.191 102.671 31.9773 102.911 32.443C103.152 32.9087 103.554 33.1491 104.118 33.1491C104.601 33.1491 105.066 33.0061 105.504 32.7116C105.941 32.417 106.273 32.0401 106.487 31.5852V12.0024H112.034Z" fill="white"/>
<path d="M140.487 12.0024V36.6364H136.151L135.668 33.6235H135.551C134.37 35.9043 132.6 37.0392 130.248 37.0392C128.613 37.0392 127.404 36.5021 126.627 35.4299C125.849 34.3577 125.463 32.6856 125.463 30.4048V12.0024H131.006V30.0907C131.006 31.191 131.123 31.9773 131.364 32.443C131.604 32.9087 132.007 33.1491 132.57 33.1491C133.053 33.1491 133.519 33.0061 133.956 32.7116C134.394 32.417 134.725 32.0401 134.94 31.5852V12.0024H140.487Z" fill="white"/>
<path d="M127.11 7.38041H121.602V36.6387H116.174V7.38041H110.665V2.91846H127.101V7.38041H127.11Z" fill="white"/>
<path d="M158.844 15.9469C158.504 14.3917 157.966 13.2653 157.217 12.5679C156.465 11.8704 155.437 11.5217 154.124 11.5217C153.104 11.5217 152.157 11.8076 151.271 12.3881C150.385 12.9599 149.708 13.7202 149.224 14.6603H149.179V1.67725H143.831V36.6473H148.41L148.973 34.3145H149.09C149.519 35.1463 150.162 35.7982 151.022 36.2813C151.88 36.7643 152.829 37.0047 153.875 37.0047C155.753 37.0047 157.13 36.1383 158.014 34.412C158.9 32.6857 159.338 29.9869 159.338 26.3112V22.4124C159.344 19.6572 159.175 17.502 158.844 15.9469ZM153.756 25.9971C153.756 27.7949 153.684 29.1984 153.533 30.2186C153.39 31.2388 153.138 31.9623 152.79 32.3911C152.441 32.82 151.975 33.0344 151.386 33.0344C150.929 33.0344 150.509 32.9261 150.117 32.7117C149.731 32.4973 149.411 32.1745 149.168 31.7457V17.7511C149.357 17.0797 149.677 16.536 150.134 16.105C150.591 15.6761 151.083 15.4617 151.618 15.4617C152.181 15.4617 152.619 15.6848 152.924 16.1223C153.227 16.5598 153.442 17.3114 153.567 18.3489C153.684 19.3951 153.747 20.8788 153.747 22.8109V25.9949L153.756 25.9971Z" fill="white"/>
<path d="M191.513 2.91846H183.945V37.0048H188.864V9.32115L194.288 37.0048H198.828L204.503 8.69085V37.0395H209.296V2.91846H201.477L196.621 29.8787L191.513 2.91846Z" fill="white"/>
<path d="M223.8 37.0392H227.71V12.0024H222.411V31.7715C221.528 33.2856 218.376 34.5462 218.376 31.5203C218.376 28.4944 218.376 12.0046 218.376 12.0046H213.078C213.078 12.0046 213.078 27.9897 213.078 32.2784C213.078 36.567 218.881 40.3511 222.916 33.918L223.8 37.0392Z" fill="white"/>
<path d="M253.06 12.0024H248.141V37.0392H253.06V12.0024Z" fill="white"/>
<path d="M250.728 9.06953C249.027 9.06953 247.637 7.67896 247.637 5.97865V5.22272C247.637 3.52241 249.027 2.13184 250.728 2.13184C252.428 2.13184 253.818 3.52241 253.818 5.22272V5.97865C253.816 7.67896 252.428 9.06953 250.728 9.06953Z" fill="white"/>
<path d="M240.196 19.98H244.485C244.611 17.8985 244.736 11.5933 238.052 11.5933C232.503 11.5933 230.989 15.1238 230.989 18.2775C230.989 21.4312 232.587 23.6579 237.127 27.1906C240.996 29.2093 241.163 33.8337 237.968 33.8337C236.454 33.8337 235.529 32.8244 235.529 31.3948C235.529 29.9653 235.529 29.1249 235.529 29.1249H230.989C230.989 29.1249 230.989 31.0591 230.989 31.7306C230.989 34.0005 232.503 37.4488 237.799 37.4488C243.097 37.4488 244.947 34.5052 244.947 29.9653C244.947 25.4253 235.362 20.9677 235.362 17.8573C235.362 14.2423 240.134 14.6408 240.134 17.2682L240.196 19.98Z" fill="white"/>
<path d="M262.099 17.9392C261.594 23.6575 262.015 28.0285 262.184 30.8031C262.413 34.5806 266.388 34.5871 266.388 30.7186C266.388 28.1129 266.388 27.944 266.388 27.944H271.012C271.012 32.9886 269.247 37.1083 264.285 37.1083C258.482 37.1083 256.801 32.9886 256.801 28.6154C256.801 24.2423 256.801 21.3009 256.801 21.3009C256.801 15.4158 259.324 11.4629 264.116 11.4629C270.505 11.4629 270.674 16.0028 270.674 18.106C270.674 20.207 270.674 20.8807 270.674 20.8807L266.386 21.2164C266.386 21.2164 266.386 20.207 266.386 17.8526C266.388 15.5003 263.444 13.3993 262.099 17.9392Z" fill="white"/>
</g>
<defs>
<clipPath id="clip0_221_318">
<rect width="271" height="40" fill="white" transform="translate(0.437225)"/>
</clipPath>
</defs>
</svg>
