<svg width="176" height="40" viewBox="0 0 176 40" fill="none" xmlns="http://www.w3.org/2000/svg">
<g clip-path="url(#clip0_221_291)">
<path fill-rule="evenodd" clip-rule="evenodd" d="M49.8899 1.30022C52.3115 1.95219 54.2175 3.8561 54.8608 6.27119C56.0327 10.653 56.0327 19.8 56.0327 19.8C56.0327 19.8 56.0327 28.947 54.8608 33.3289C54.2089 35.7505 52.305 37.6565 49.8899 38.2998C45.5081 39.4716 27.9288 39.4716 27.9288 39.4716C27.9288 39.4716 10.3582 39.4716 5.96773 38.2998C3.54614 37.6479 1.64006 35.744 0.996757 33.3289C-0.175049 28.947 -0.175049 19.8 -0.175049 19.8C-0.175049 19.8 -0.175049 10.653 0.996757 6.27119C1.64872 3.8496 3.55264 1.94352 5.96773 1.30022C10.3582 0.128418 27.9288 0.128418 27.9288 0.128418C27.9288 0.128418 45.5081 0.128418 49.8899 1.30022ZM36.9155 19.8001L22.3123 28.2323V11.3678L36.9155 19.8001Z" fill="white"/>
<path d="M81.4095 35.9216C80.3005 35.17 79.5055 34.009 79.0399 32.4256C78.5742 30.8423 78.3337 28.7413 78.3337 26.1117V22.5357C78.3337 19.8802 78.6023 17.751 79.1395 16.1417C79.6767 14.5323 80.5171 13.3605 81.6521 12.6284C82.787 11.8941 84.2816 11.5194 86.1313 11.5194C87.9551 11.5194 89.4128 11.8941 90.5132 12.6457C91.6135 13.3973 92.4171 14.5691 92.9283 16.159C93.4373 17.751 93.6885 19.878 93.6885 22.5249V26.1009C93.6885 28.7304 93.4373 30.8401 92.9456 32.4321C92.4539 34.0241 91.6481 35.196 90.5305 35.9281C89.4215 36.6623 87.9096 37.0371 86.0057 37.0371C84.0563 37.0479 82.5185 36.6732 81.4095 35.9216ZM87.641 32.0596C87.9443 31.2538 88.1067 29.9412 88.1067 28.1261V20.4455C88.1067 18.6759 87.9551 17.3871 87.641 16.564C87.3378 15.7496 86.792 15.3381 86.0144 15.3381C85.2628 15.3381 84.7364 15.7496 84.4224 16.564C84.1191 17.3784 83.9567 18.6737 83.9567 20.4455V28.1261C83.9567 29.9499 84.0996 31.2647 84.3942 32.0596C84.6888 32.8653 85.226 33.266 86.0035 33.266C86.792 33.266 87.3291 32.8632 87.641 32.0596Z" fill="white"/>
<path d="M166.776 26.1746V27.4179C166.776 29.0012 166.821 30.1817 166.919 30.9766C167.008 31.7629 167.205 32.3455 167.499 32.7029C167.794 33.0603 168.251 33.2487 168.868 33.2487C169.7 33.2487 170.272 32.926 170.575 32.2827C170.878 31.6394 171.049 30.5651 171.075 29.064L175.86 29.3413C175.886 29.5557 175.897 29.8503 175.897 30.2272C175.897 32.508 175.271 34.2061 174.028 35.3324C172.784 36.4587 171.023 37.0219 168.743 37.0219C166.007 37.0219 164.092 36.1642 162.994 34.4465C161.894 32.7289 161.348 30.082 161.348 26.4886V22.187C161.348 18.4853 161.92 15.7929 163.055 14.0861C164.19 12.388 166.139 11.5367 168.903 11.5367C170.807 11.5367 172.265 11.8855 173.285 12.5829C174.305 13.2804 175.02 14.3634 175.44 15.8384C175.851 17.3135 176.066 19.3517 176.066 21.9465V26.1681H166.776V26.1746ZM167.482 15.8038C167.205 16.1525 167.016 16.7243 166.919 17.5106C166.821 18.2968 166.776 19.5055 166.776 21.1061V22.8758H170.835V21.1061C170.835 19.5228 170.781 18.325 170.675 17.5106C170.566 16.6962 170.371 16.1157 170.094 15.7843C169.817 15.4529 169.379 15.2839 168.788 15.2839C168.197 15.2753 167.759 15.455 167.482 15.8038Z" fill="white"/>
<path d="M67.9067 25.7111L61.5928 2.9183H67.1009L69.3102 13.2458C69.8734 15.7952 70.2849 17.959 70.5535 19.7546H70.7138C70.9022 18.468 71.3138 16.3128 71.9571 13.2804L74.2465 2.90747H79.7547L73.3693 25.709V36.6451H67.9067V25.7111Z" fill="white"/>
<path d="M111.597 12.0024V36.6364H107.261L106.778 33.6235H106.661C105.48 35.9043 103.711 37.0392 101.358 37.0392C99.7231 37.0392 98.5145 36.5021 97.7369 35.4299C96.9593 34.3577 96.5737 32.6856 96.5737 30.4048V12.0024H102.117V30.0907C102.117 31.191 102.233 31.9773 102.474 32.443C102.714 32.9087 103.117 33.1491 103.68 33.1491C104.163 33.1491 104.629 33.0061 105.067 32.7116C105.504 32.417 105.836 32.0401 106.05 31.5852V12.0024H111.597Z" fill="white"/>
<path d="M140.05 12.0024V36.6364H135.713L135.23 33.6235H135.113C133.933 35.9043 132.163 37.0392 129.811 37.0392C128.176 37.0392 126.967 36.5021 126.19 35.4299C125.412 34.3577 125.026 32.6856 125.026 30.4048V12.0024H130.569V30.0907C130.569 31.191 130.686 31.9773 130.927 32.443C131.167 32.9087 131.57 33.1491 132.133 33.1491C132.616 33.1491 133.082 33.0061 133.519 32.7116C133.957 32.417 134.288 32.0401 134.503 31.5852V12.0024H140.05Z" fill="white"/>
<path d="M126.672 7.38017H121.164V36.6385H115.736V7.38017H110.228V2.91821H126.664V7.38017H126.672Z" fill="white"/>
<path d="M158.407 15.9467C158.067 14.3915 157.529 13.2652 156.78 12.5678C156.028 11.8703 154.999 11.5216 153.687 11.5216C152.667 11.5216 151.72 11.8075 150.834 12.388C149.948 12.9598 149.27 13.7201 148.787 14.6601H148.742V1.67712H143.394V36.6472H147.973L148.536 34.3144H148.653C149.082 35.1462 149.725 35.7981 150.585 36.2811C151.443 36.7642 152.392 37.0046 153.438 37.0046C155.316 37.0046 156.693 36.1382 157.577 34.4119C158.463 32.6856 158.9 29.9867 158.9 26.311V22.4122C158.907 19.6571 158.738 17.5019 158.407 15.9467ZM153.319 25.997C153.319 27.7948 153.247 29.1983 153.096 30.2185C152.953 31.2387 152.701 31.9621 152.353 32.391C152.004 32.8199 151.538 33.0343 150.949 33.0343C150.492 33.0343 150.072 32.926 149.68 32.7116C149.294 32.4971 148.974 32.1744 148.731 31.7455V17.751C148.92 17.0796 149.24 16.5359 149.697 16.1048C150.154 15.676 150.646 15.4615 151.181 15.4615C151.744 15.4615 152.182 15.6846 152.487 16.1222C152.79 16.5597 153.005 17.3113 153.13 18.3488C153.247 19.395 153.31 20.8787 153.31 22.8108V25.9948L153.319 25.997Z" fill="white"/>
</g>
<defs>
<clipPath id="clip0_221_291">
<rect width="176" height="40" fill="white"/>
</clipPath>
</defs>
</svg>
